NotoSerifDisplay-Condensed.ufo
<glyph name="exclamdown" format="2">
  <advance width="274"/>
  <unicode hex="00A1"/>
  <outline>
    <contour>
      <point x="90" y="-177" type="line"/>
      <point x="184" y="-177" type="line"/>
      <point x="144" y="341" type="line"/>
      <point x="129" y="341" type="line"/>
    </contour>
    <contour>
      <point x="137" y="428" type="curve" smooth="yes"/>
      <point x="160" y="428"/>
      <point x="178" y="441"/>
      <point x="178" y="485" type="curve" smooth="yes"/>
      <point x="178" y="530"/>
      <point x="160" y="543"/>
      <point x="137" y="543" type="curve" smooth="yes"/>
      <point x="115" y="543"/>
      <point x="96" y="530"/>
      <point x="96" y="485" type="curve" smooth="yes"/>
      <point x="96" y="441"/>
      <point x="115" y="428"/>
    </contour>
  </outline>
</glyph>
<glyph name="uni0191" format="2">
  <advance width="578"/>
  <unicode hex="0191"/>
  <anchor x="130" y="-10" name="bottom"/>
  <anchor x="343" y="714" name="top"/>
  <anchor x="560" y="714" name="topright"/>
  <outline>
    <contour>
      <point x="123" y="-10" type="curve" smooth="yes"/>
      <point x="243" y="-10"/>
      <point x="297" y="59"/>
      <point x="297" y="171" type="curve" smooth="yes"/>
      <point x="297" y="366" type="line"/>
      <point x="490" y="366" type="line"/>
      <point x="490" y="376" type="line"/>
      <point x="297" y="376" type="line"/>
      <point x="297" y="704" type="line"/>
      <point x="436" y="704" type="line" smooth="yes"/>
      <point x="512" y="704"/>
      <point x="531" y="680"/>
      <point x="535" y="596" type="curve" smooth="yes"/>
      <point x="537" y="541" type="line"/>
      <point x="547" y="541" type="line"/>
      <point x="542" y="714" type="line"/>
      <point x="134" y="714" type="line"/>
      <point x="134" y="704" type="line"/>
      <point x="162" y="704" type="line" smooth="yes"/>
      <point x="199" y="704"/>
      <point x="209" y="692"/>
      <point x="209" y="631" type="curve" smooth="yes"/>
      <point x="209" y="109" type="line" smooth="yes"/>
      <point x="209" y="36"/>
      <point x="176" y="0"/>
      <point x="125" y="0" type="curve" smooth="yes"/>
      <point x="63" y="0"/>
      <point x="41" y="47"/>
      <point x="41" y="157" type="curve"/>
      <point x="13" y="157"/>
      <point x="-11" y="140"/>
      <point x="-11" y="98" type="curve" smooth="yes"/>
      <point x="-11" y="46"/>
      <point x="25" y="-10"/>
    </contour>
  </outline>
</glyph>
<glyph name="florin" format="2">
  <advance width="359"/>
  <unicode hex="0192"/>
  <anchor x="98" y="-11" name="bottom"/>
  <anchor x="274" y="771" name="top"/>
  <anchor x="442" y="771" name="topright"/>
  <outline>
    <contour>
      <point x="98" y="-11" type="curve" smooth="yes"/>
      <point x="199" y="-11"/>
      <point x="241" y="55"/>
      <point x="241" y="204" type="curve" smooth="yes"/>
      <point x="241" y="526" type="line"/>
      <point x="352" y="526" type="line"/>
      <point x="352" y="536" type="line"/>
      <point x="241" y="536" type="line"/>
      <point x="241" y="618" type="line" smooth="yes"/>
      <point x="241" y="723"/>
      <point x="258" y="761"/>
      <point x="305" y="761" type="curve" smooth="yes"/>
      <point x="345" y="761"/>
      <point x="351" y="727"/>
      <point x="351" y="642" type="curve"/>
      <point x="396" y="642"/>
      <point x="413" y="662"/>
      <point x="413" y="698" type="curve" smooth="yes"/>
      <point x="413" y="740"/>
      <point x="385" y="771"/>
      <point x="303" y="771" type="curve" smooth="yes"/>
      <point x="199" y="771"/>
      <point x="155" y="705"/>
      <point x="155" y="584" type="curve" smooth="yes"/>
      <point x="155" y="536" type="line"/>
      <point x="84" y="536" type="line"/>
      <point x="84" y="526" type="line"/>
      <point x="155" y="526" type="line"/>
      <point x="155" y="161" type="line" smooth="yes"/>
      <point x="155" y="37"/>
      <point x="140" y="-1"/>
      <point x="96" y="-1" type="curve" smooth="yes"/>
      <point x="56" y="-1"/>
      <point x="50" y="33"/>
      <point x="50" y="118" type="curve"/>
      <point x="5" y="118"/>
      <point x="-12" y="98"/>
      <point x="-12" y="62" type="curve" smooth="yes"/>
      <point x="-12" y="20"/>
      <point x="16" y="-11"/>
    </contour>
  </outline>
</glyph>
<glyph name="uni023E" format="2">
  <advance width="494"/>
  <unicode hex="023E"/>
  <anchor x="246" y="0" name="bottom"/>
  <anchor x="246" y="714" name="top"/>
  <anchor x="246" y="357" name="center"/>
  <anchor x="500" y="714" name="topright"/>
  <outline>
    <contour>
      <point x="34" y="-66" type="line"/>
      <point x="46" y="-66" type="line"/>
      <point x="442" y="760" type="line"/>
      <point x="431" y="760" type="line"/>
    </contour>
    <component base="T" xOffset="-1"/>
  </outline>
</glyph>
<glyph name="uni0244" format="2">
  <advance width="573"/>
  <unicode hex="0244"/>
  <anchor x="287" y="0" name="bottom"/>
  <anchor x="287" y="714" name="top"/>
  <anchor x="580" y="714" name="topright"/>
  <outline>
    <contour>
      <point x="8" y="369" type="line"/>
      <point x="565" y="369" type="line"/>
      <point x="565" y="379" type="line"/>
      <point x="8" y="379" type="line"/>
    </contour>
    <component base="U"/>
  </outline>
</glyph>
<glyph name="uni0246" format="2">
  <advance width="498"/>
  <unicode hex="0246"/>
  <anchor x="250" y="0" name="bottom"/>
  <anchor x="250" y="714" name="top"/>
  <anchor x="478" y="714" name="topright"/>
  <outline>
    <contour>
      <point x="168" y="-66" type="line"/>
      <point x="178" y="-66" type="line"/>
      <point x="391" y="760" type="line"/>
      <point x="381" y="760" type="line"/>
    </contour>
    <component base="E"/>
  </outline>
</glyph>
<glyph name="uni0247" format="2">
  <advance width="431"/>
  <unicode hex="0247"/>
  <anchor x="216" y="-183" name="bottom"/>
  <anchor x="216" y="714" name="top"/>
  <anchor x="411" y="536" name="topright"/>
  <outline>
    <contour>
      <point x="120" y="-183" type="line"/>
      <point x="130" y="-183" type="line"/>
      <point x="307" y="714" type="line"/>
      <point x="297" y="714" type="line"/>
    </contour>
    <component base="e"/>
  </outline>
</glyph>
<glyph name="uni024C" format="2">
  <advance width="540"/>
  <unicode hex="024C"/>
  <anchor x="274" y="0" name="bottom"/>
  <anchor x="274" y="714" name="top"/>
  <anchor x="520" y="714" name="topright"/>
  <outline>
    <contour>
      <point x="28" y="327" type="line"/>
      <point x="126" y="327" type="line"/>
      <point x="126" y="337" type="line"/>
      <point x="28" y="337" type="line"/>
    </contour>
    <component base="R" xOffset="9"/>
  </outline>
</glyph>
<glyph name="uni024D" format="2">
  <advance width="383"/>
  <unicode hex="024D"/>
  <anchor x="191" y="0" name="bottom"/>
  <anchor x="191" y="536" name="top"/>
  <anchor x="402" y="536" name="topright"/>
  <outline>
    <contour>
      <point x="14" y="277" type="line"/>
      <point x="275" y="277" type="line"/>
      <point x="275" y="287" type="line"/>
      <point x="14" y="287" type="line"/>
    </contour>
    <component base="r"/>
  </outline>
</glyph>
<glyph name="uni02C4" format="2">
  <advance width="222"/>
  <unicode hex="02C4"/>
  <outline>
    <contour>
      <point x="5" y="573" type="line"/>
      <point x="19" y="573" type="line"/>
      <point x="56" y="625"/>
      <point x="85" y="674"/>
      <point x="111" y="730" type="curve"/>
      <point x="137" y="674"/>
      <point x="166" y="625"/>
      <point x="204" y="573" type="curve"/>
      <point x="218" y="573" type="line"/>
      <point x="218" y="577" type="line"/>
      <point x="183" y="638"/>
      <point x="151" y="710"/>
      <point x="126" y="785" type="curve"/>
      <point x="95" y="785" type="line"/>
      <point x="75" y="722"/>
      <point x="44" y="649"/>
      <point x="5" y="577" type="curve"/>
    </contour>
  </outline>
</glyph>
<glyph name="tonos" format="2">
  <advance width="456"/>
  <unicode hex="0384"/>
  <anchor x="248" y="536" name="_top"/>
  <outline>
    <contour>
      <point x="196" y="606" type="line"/>
      <point x="202" y="606" type="line"/>
      <point x="240" y="672"/>
      <point x="264" y="713"/>
      <point x="299" y="785" type="curve"/>
      <point x="299" y="796" type="line"/>
      <point x="236" y="796" type="line"/>
      <point x="222" y="731"/>
      <point x="212" y="675"/>
      <point x="196" y="614" type="curve"/>
    </contour>
  </outline>
</glyph>
<glyph name="uni0469" format="2">
  <advance width="685"/>
  <unicode hex="0469"/>
  <anchor x="349" y="0" name="bottom"/>
  <anchor x="349" y="536" name="top"/>
  <outline>
    <contour>
      <point x="17" y="0" type="line"/>
      <point x="173" y="0" type="line"/>
      <point x="173" y="270" type="line"/>
      <point x="337" y="270" type="line"/>
      <point x="342" y="280" type="line"/>
      <point x="173" y="280" type="line"/>
      <point x="173" y="451" type="line" smooth="yes"/>
      <point x="173" y="516"/>
      <point x="183" y="526"/>
      <point x="230" y="526" type="curve" smooth="yes"/>
      <point x="240" y="526" type="line"/>
      <point x="240" y="536" type="line"/>
      <point x="17" y="536" type="line"/>
      <point x="17" y="526" type="line"/>
      <point x="30" y="526" type="line" smooth="yes"/>
      <point x="78" y="526"/>
      <point x="90" y="516"/>
      <point x="90" y="452" type="curve" smooth="yes"/>
      <point x="90" y="85" type="line" smooth="yes"/>
      <point x="90" y="20"/>
      <point x="78" y="10"/>
      <point x="30" y="10" type="curve" smooth="yes"/>
      <point x="17" y="10" type="line"/>
    </contour>
    <component base="uni0467" xOffset="200"/>
  </outline>
</glyph>
<glyph name="uni0488" format="2">
  <advance width="781"/>
  <unicode hex="0488"/>
  <outline>
    <contour>
      <point x="84" y="462" type="curve"/>
      <point x="112" y="462" type="line"/>
      <point x="115" y="508"/>
      <point x="132" y="519"/>
      <point x="165" y="519" type="curve" smooth="yes"/>
      <point x="191" y="519"/>
      <point x="215" y="505"/>
      <point x="219" y="462" type="curve"/>
      <point x="247" y="462" type="line"/>
      <point x="243" y="518"/>
      <point x="216" y="557"/>
      <point x="165" y="557" type="curve" smooth="yes"/>
      <point x="112" y="557"/>
      <point x="87" y="520"/>
    </contour>
    <contour>
      <point x="15" y="224" type="curve"/>
      <point x="42" y="224" type="line"/>
      <point x="45" y="270"/>
      <point x="63" y="281"/>
      <point x="96" y="281" type="curve" smooth="yes"/>
      <point x="124" y="281"/>
      <point x="147" y="268"/>
      <point x="150" y="224" type="curve"/>
      <point x="178" y="224" type="line"/>
      <point x="175" y="280"/>
      <point x="146" y="319"/>
      <point x="96" y="319" type="curve" smooth="yes"/>
      <point x="44" y="319"/>
      <point x="18" y="282"/>
    </contour>
    <contour>
      <point x="84" y="-20" type="curve"/>
      <point x="112" y="-20" type="line"/>
      <point x="115" y="26"/>
      <point x="132" y="37"/>
      <point x="165" y="37" type="curve" smooth="yes"/>
      <point x="191" y="37"/>
      <point x="215" y="23"/>
      <point x="219" y="-20" type="curve"/>
      <point x="247" y="-20" type="line"/>
      <point x="243" y="36"/>
      <point x="216" y="75"/>
      <point x="165" y="75" type="curve" smooth="yes"/>
      <point x="112" y="75"/>
      <point x="87" y="38"/>
    </contour>
    <contour>
      <point x="306" y="-156" type="curve"/>
      <point x="334" y="-156" type="line"/>
      <point x="337" y="-110"/>
      <point x="354" y="-99"/>
      <point x="387" y="-99" type="curve" smooth="yes"/>
      <point x="413" y="-99"/>
      <point x="436" y="-113"/>
      <point x="441" y="-156" type="curve"/>
      <point x="469" y="-156" type="line"/>
      <point x="465" y="-100"/>
      <point x="437" y="-61"/>
      <point x="387" y="-61" type="curve" smooth="yes"/>
      <point x="333" y="-61"/>
      <point x="308" y="-98"/>
    </contour>
    <contour>
      <point x="530" y="-20" type="curve"/>
      <point x="557" y="-20" type="line"/>
      <point x="561" y="26"/>
      <point x="578" y="37"/>
      <point x="610" y="37" type="curve" smooth="yes"/>
      <point x="638" y="37"/>
      <point x="661" y="23"/>
      <point x="665" y="-20" type="curve"/>
      <point x="693" y="-20" type="line"/>
      <point x="689" y="36"/>
      <point x="661" y="75"/>
      <point x="610" y="75" type="curve" smooth="yes"/>
      <point x="558" y="75"/>
      <point x="533" y="38"/>
    </contour>
    <contour>
      <point x="603" y="224" type="curve"/>
      <point x="631" y="224" type="line"/>
      <point x="634" y="270"/>
      <point x="652" y="281"/>
      <point x="685" y="281" type="curve" smooth="yes"/>
      <point x="711" y="281"/>
      <point x="734" y="267"/>
      <point x="738" y="224" type="curve"/>
      <point x="766" y="224" type="line"/>
      <point x="763" y="280"/>
      <point x="734" y="319"/>
      <point x="685" y="319" type="curve" smooth="yes"/>
      <point x="631" y="319"/>
      <point x="605" y="282"/>
    </contour>
    <contour>
      <point x="530" y="462" type="curve"/>
      <point x="557" y="462" type="line"/>
      <point x="561" y="508"/>
      <point x="578" y="519"/>
      <point x="610" y="519" type="curve" smooth="yes"/>
      <point x="638" y="519"/>
      <point x="661" y="505"/>
      <point x="665" y="462" type="curve"/>
      <point x="693" y="462" type="line"/>
      <point x="689" y="518"/>
      <point x="661" y="557"/>
      <point x="610" y="557" type="curve" smooth="yes"/>
      <point x="558" y="557"/>
      <point x="533" y="520"/>
    </contour>
    <contour>
      <point x="306" y="601" type="curve"/>
      <point x="334" y="601" type="line"/>
      <point x="337" y="647"/>
      <point x="354" y="658"/>
      <point x="387" y="658" type="curve" smooth="yes"/>
      <point x="413" y="658"/>
      <point x="436" y="644"/>
      <point x="441" y="601" type="curve"/>
      <point x="469" y="601" type="line"/>
      <point x="465" y="657"/>
      <point x="437" y="696"/>
      <point x="387" y="696" type="curve" smooth="yes"/>
      <point x="333" y="696"/>
      <point x="308" y="659"/>
    </contour>
  </outline>
</glyph>
<glyph name="uni0489" format="2">
  <advance width="956"/>
  <unicode hex="0489"/>
  <outline>
    <contour>
      <point x="690" y="455" type="line"/>
      <point x="729" y="483"/>
      <point x="788" y="519"/>
      <point x="837" y="549" type="curve"/>
      <point x="809" y="575" type="line"/>
      <point x="758" y="554"/>
      <point x="698" y="525"/>
      <point x="653" y="499" type="curve"/>
      <point x="653" y="492" type="line"/>
    </contour>
    <contour>
      <point x="146" y="-56" type="line"/>
      <point x="197" y="-35"/>
      <point x="257" y="-5"/>
      <point x="301" y="23" type="curve"/>
      <point x="302" y="29" type="line"/>
      <point x="264" y="67" type="line"/>
      <point x="225" y="38"/>
      <point x="167" y="0"/>
      <point x="119" y="-30" type="curve"/>
    </contour>
    <contour>
      <point x="186" y="223" type="curve"/>
      <point x="191" y="227" type="line"/>
      <point x="191" y="280" type="line"/>
      <point x="143" y="288"/>
      <point x="75" y="303"/>
      <point x="20" y="317" type="curve"/>
      <point x="20" y="280" type="line"/>
      <point x="71" y="258"/>
      <point x="135" y="235"/>
    </contour>
    <contour>
      <point x="431" y="-188" type="curve"/>
      <point x="468" y="-188" type="line"/>
      <point x="490" y="-136"/>
      <point x="512" y="-73"/>
      <point x="525" y="-22" type="curve"/>
      <point x="521" y="-17" type="line"/>
      <point x="467" y="-17" type="line"/>
      <point x="459" y="-65"/>
      <point x="445" y="-133"/>
    </contour>
    <contour>
      <point x="767" y="-100" type="curve"/>
      <point x="793" y="-73" type="line"/>
      <point x="772" y="-22"/>
      <point x="743" y="39"/>
      <point x="716" y="83" type="curve"/>
      <point x="709" y="84" type="line"/>
      <point x="672" y="47" type="line"/>
      <point x="700" y="7"/>
      <point x="738" y="-52"/>
    </contour>
    <contour>
      <point x="246" y="434" type="line"/>
      <point x="283" y="472" type="line"/>
      <point x="254" y="511"/>
      <point x="217" y="569"/>
      <point x="187" y="617" type="curve"/>
      <point x="161" y="590" type="line"/>
      <point x="182" y="539"/>
      <point x="212" y="479"/>
      <point x="239" y="435" type="curve"/>
    </contour>
    <contour>
      <point x="936" y="221" type="curve"/>
      <point x="936" y="258" type="line"/>
      <point x="884" y="280"/>
      <point x="820" y="304"/>
      <point x="770" y="317" type="curve"/>
      <point x="764" y="313" type="line"/>
      <point x="764" y="259" type="line"/>
      <point x="812" y="252"/>
      <point x="881" y="236"/>
    </contour>
    <contour>
      <point x="440" y="557" type="line"/>
      <point x="493" y="557" type="line"/>
      <point x="500" y="605"/>
      <point x="513" y="673"/>
      <point x="526" y="728" type="curve"/>
      <point x="490" y="728" type="line"/>
      <point x="469" y="676"/>
      <point x="447" y="613"/>
      <point x="436" y="563" type="curve"/>
    </contour>
  </outline>
</glyph>
<glyph name="uni04C5" format="2">
  <advance width="561"/>
  <unicode hex="04C5"/>
  <anchor x="271" y="0" name="bottom"/>
  <anchor x="281" y="714" name="top"/>
  <outline>
    <contour>
      <point x="430" y="-210" type="line"/>
      <point x="482" y="-210" type="line"/>
      <point x="530" y="0" type="line"/>
      <point x="529" y="10" type="line"/>
      <point x="521" y="10" type="line"/>
      <point x="521" y="0" type="line"/>
    </contour>
    <component base="afii10029"/>
  </outline>
</glyph>
<glyph name="uni04C6" format="2">
  <advance width="504"/>
  <unicode hex="04C6"/>
  <anchor x="247" y="0" name="bottom"/>
  <anchor x="257" y="536" name="top"/>
  <outline>
    <contour>
      <point x="386" y="-210" type="line"/>
      <point x="439" y="-210" type="line"/>
      <point x="486" y="0" type="line"/>
      <point x="485" y="10" type="line"/>
      <point x="477" y="10" type="line"/>
      <point x="477" y="0" type="line"/>
    </contour>
    <component base="afii10077"/>
  </outline>
</glyph>
<glyph name="uni04C9" format="2">
  <advance width="633"/>
  <unicode hex="04C9"/>
  <anchor x="326" y="0" name="bottom"/>
  <anchor x="326" y="714" name="top"/>
  <anchor x="317" y="357" name="center"/>
  <anchor x="613" y="714" name="topright"/>
  <outline>
    <contour>
      <point x="507" y="-210" type="line"/>
      <point x="557" y="-210" type="line"/>
      <point x="605" y="0" type="line"/>
      <point x="605" y="10" type="line"/>
      <point x="596" y="10" type="line"/>
      <point x="596" y="0" type="line"/>
    </contour>
    <component base="H"/>
  </outline>
</glyph>
<glyph name="uni04FF" format="2">
  <advance width="470"/>
  <unicode hex="04FF"/>
  <anchor x="234" y="0" name="bottom"/>
  <anchor x="234" y="536" name="top"/>
  <anchor x="450" y="536" name="topright"/>
  <outline>
    <contour>
      <point x="66" y="282" type="line"/>
      <point x="408" y="282" type="line"/>
      <point x="408" y="292" type="line"/>
      <point x="66" y="292" type="line"/>
    </contour>
    <component base="x"/>
  </outline>
</glyph>
<glyph name="uni051E" format="2">
  <advance width="566"/>
  <unicode hex="051E"/>
  <anchor x="283" y="0" name="bottom"/>
  <anchor x="283" y="714" name="top"/>
  <outline>
    <contour>
      <point x="459" y="479" type="line"/>
      <point x="464" y="487" type="line"/>
      <point x="267" y="616" type="line"/>
      <point x="262" y="609" type="line"/>
    </contour>
    <component base="afii10028"/>
  </outline>
</glyph>
<glyph name="uni1AB3" format="2">
  <unicode hex="1AB3"/>
  <anchor x="-1" y="536" name="_top"/>
  <anchor x="0" y="772" name="top"/>
  <outline>
    <contour>
      <point x="0" y="572" type="line"/>
      <point x="50" y="642" type="line"/>
      <point x="10" y="642" type="line"/>
      <point x="10" y="772" type="line"/>
      <point x="-10" y="772" type="line"/>
      <point x="-10" y="642" type="line"/>
      <point x="-50" y="642" type="line"/>
    </contour>
  </outline>
</glyph>
<glyph name="uni1ABA" format="2">
  <unicode hex="1ABA"/>
  <anchor x="-348" y="47" name="_bottom"/>
  <anchor x="-348" y="-265" name="bottom"/>
  <outline>
    <contour>
      <point x="-366" y="-234" type="line"/>
      <point x="-290" y="31" type="line"/>
      <point x="-309" y="37" type="line"/>
      <point x="-386" y="-228" type="line"/>
    </contour>
    <contour>
      <point x="-374" y="-273" type="curve" smooth="yes"/>
      <point x="-350" y="-273"/>
      <point x="-335" y="-256"/>
      <point x="-335" y="-223" type="curve" smooth="yes"/>
      <point x="-335" y="-190"/>
      <point x="-350" y="-172"/>
      <point x="-374" y="-172" type="curve" smooth="yes"/>
      <point x="-400" y="-172"/>
      <point x="-415" y="-190"/>
      <point x="-415" y="-223" type="curve" smooth="yes"/>
      <point x="-415" y="-256"/>
      <point x="-400" y="-273"/>
    </contour>
  </outline>
</glyph>
<glyph name="uni1ABF" format="2">
  <unicode hex="1ABF"/>
  <anchor x="0" y="0" name="_bottom"/>
  <outline>
    <contour>
      <point x="-127" y="-89" type="curve" smooth="yes"/>
      <point x="-77" y="-278" type="line"/>
      <point x="-56" y="-278" type="line"/>
      <point x="-5" y="-95" type="line"/>
      <point x="51" y="-278" type="line"/>
      <point x="74" y="-278" type="line"/>
      <point x="118" y="-87" type="line" smooth="yes"/>
      <point x="122" y="-69"/>
      <point x="126" y="-68"/>
      <point x="144" y="-68" type="curve" smooth="yes"/>
      <point x="153" y="-68" type="line"/>
      <point x="153" y="-64" type="line"/>
      <point x="85" y="-64" type="line"/>
      <point x="85" y="-68" type="line"/>
      <point x="99" y="-68" type="line" smooth="yes"/>
      <point x="113" y="-68"/>
      <point x="115" y="-70"/>
      <point x="115" y="-76" type="curve" smooth="yes"/>
      <point x="115" y="-80"/>
      <point x="113" y="-90"/>
      <point x="110" y="-103" type="curve" smooth="yes"/>
      <point x="89" y="-195" type="line" smooth="yes"/>
      <point x="86" y="-207"/>
      <point x="79" y="-238"/>
      <point x="77" y="-251" type="curve"/>
      <point x="76" y="-251" type="line"/>
      <point x="72" y="-236"/>
      <point x="63" y="-205"/>
      <point x="59" y="-190" type="curve" smooth="yes"/>
      <point x="18" y="-64" type="line"/>
      <point x="-1" y="-64" type="line"/>
      <point x="-37" y="-195" type="line" smooth="yes"/>
      <point x="-41" y="-210"/>
      <point x="-49" y="-237"/>
      <point x="-52" y="-250" type="curve"/>
      <point x="-53" y="-250" type="line"/>
      <point x="-55" y="-235"/>
      <point x="-58" y="-224"/>
      <point x="-65" y="-199" type="curve" smooth="yes"/>
      <point x="-90" y="-104" type="line" smooth="yes"/>
      <point x="-92" y="-93"/>
      <point x="-96" y="-80"/>
      <point x="-96" y="-75" type="curve" smooth="yes"/>
      <point x="-96" y="-70"/>
      <point x="-93" y="-68"/>
      <point x="-79" y="-68" type="curve" smooth="yes"/>
      <point x="-63" y="-68" type="line"/>
      <point x="-63" y="-64" type="line"/>
      <point x="-153" y="-64" type="line"/>
      <point x="-153" y="-68" type="line"/>
      <point x="-152" y="-68" type="line" smooth="yes"/>
      <point x="-135" y="-68"/>
      <point x="-132" y="-70"/>
    </contour>
  </outline>
</glyph>
<glyph name="uni1AC0" format="2">
  <unicode hex="1AC0"/>
  <anchor x="0" y="0" name="_bottom"/>
  <outline>
    <contour>
      <point x="127" y="-253" type="curve" smooth="yes"/>
      <point x="77" y="-64" type="line"/>
      <point x="56" y="-64" type="line"/>
      <point x="5" y="-247" type="line"/>
      <point x="-51" y="-64" type="line"/>
      <point x="-74" y="-64" type="line"/>
      <point x="-118" y="-255" type="line" smooth="yes"/>
      <point x="-122" y="-273"/>
      <point x="-126" y="-274"/>
      <point x="-144" y="-274" type="curve" smooth="yes"/>
      <point x="-153" y="-274" type="line"/>
      <point x="-153" y="-278" type="line"/>
      <point x="-85" y="-278" type="line"/>
      <point x="-85" y="-274" type="line"/>
      <point x="-99" y="-274" type="line" smooth="yes"/>
      <point x="-113" y="-274"/>
      <point x="-115" y="-272"/>
      <point x="-115" y="-266" type="curve" smooth="yes"/>
      <point x="-115" y="-262"/>
      <point x="-113" y="-252"/>
      <point x="-110" y="-239" type="curve" smooth="yes"/>
      <point x="-89" y="-147" type="line" smooth="yes"/>
      <point x="-86" y="-135"/>
      <point x="-79" y="-104"/>
      <point x="-77" y="-91" type="curve"/>
      <point x="-76" y="-91" type="line"/>
      <point x="-72" y="-106"/>
      <point x="-63" y="-137"/>
      <point x="-59" y="-152" type="curve" smooth="yes"/>
      <point x="-18" y="-278" type="line"/>
      <point x="1" y="-278" type="line"/>
      <point x="37" y="-147" type="line" smooth="yes"/>
      <point x="41" y="-132"/>
      <point x="49" y="-105"/>
      <point x="52" y="-92" type="curve"/>
      <point x="53" y="-92" type="line"/>
      <point x="55" y="-107"/>
      <point x="58" y="-118"/>
      <point x="65" y="-143" type="curve" smooth="yes"/>
      <point x="90" y="-238" type="line" smooth="yes"/>
      <point x="92" y="-249"/>
      <point x="96" y="-262"/>
      <point x="96" y="-267" type="curve" smooth="yes"/>
      <point x="96" y="-272"/>
      <point x="93" y="-274"/>
      <point x="79" y="-274" type="curve" smooth="yes"/>
      <point x="63" y="-274" type="line"/>
      <point x="63" y="-278" type="line"/>
      <point x="153" y="-278" type="line"/>
      <point x="153" y="-274" type="line"/>
      <point x="152" y="-274" type="line" smooth="yes"/>
      <point x="135" y="-274"/>
      <point x="132" y="-272"/>
    </contour>
  </outline>
</glyph>
<glyph name="uni1D09" format="2">
  <advance width="255"/>
  <unicode hex="1D09"/>
  <anchor x="128" y="-180" name="bottom"/>
  <anchor x="128" y="536" name="top"/>
  <outline>
    <contour>
      <point x="29" y="0" type="line"/>
      <point x="229" y="0" type="line"/>
      <point x="229" y="10" type="line"/>
      <point x="216" y="10" type="line" smooth="yes"/>
      <point x="178" y="10"/>
      <point x="171" y="19"/>
      <point x="171" y="74" type="curve" smooth="yes"/>
      <point x="171" y="463" type="line" smooth="yes"/>
      <point x="171" y="518"/>
      <point x="178" y="526"/>
      <point x="216" y="526" type="curve" smooth="yes"/>
      <point x="230" y="526" type="line"/>
      <point x="230" y="536" type="line"/>
      <point x="29" y="536" type="line"/>
      <point x="29" y="526" type="line"/>
      <point x="42" y="526" type="line" smooth="yes"/>
      <point x="80" y="526"/>
      <point x="87" y="518"/>
      <point x="87" y="463" type="curve" smooth="yes"/>
      <point x="87" y="74" type="line" smooth="yes"/>
      <point x="87" y="19"/>
      <point x="80" y="10"/>
      <point x="42" y="10" type="curve" smooth="yes"/>
      <point x="29" y="10" type="line"/>
    </contour>
    <contour>
      <point x="126" y="-180" type="curve" smooth="yes"/>
      <point x="152" y="-180"/>
      <point x="171" y="-163"/>
      <point x="171" y="-125" type="curve" smooth="yes"/>
      <point x="171" y="-87"/>
      <point x="152" y="-70"/>
      <point x="126" y="-70" type="curve" smooth="yes"/>
      <point x="99" y="-70"/>
      <point x="82" y="-87"/>
      <point x="82" y="-125" type="curve" smooth="yes"/>
      <point x="82" y="-163"/>
      <point x="99" y="-180"/>
    </contour>
  </outline>
</glyph>
<glyph name="uni1D24" format="2">
  <advance width="355"/>
  <unicode hex="1D24"/>
  <anchor x="178" y="0" name="bottom"/>
  <anchor x="178" y="536" name="top"/>
  <outline>
    <contour>
      <point x="191" y="-20" type="curve" smooth="yes"/>
      <point x="284" y="-20"/>
      <point x="329" y="29"/>
      <point x="329" y="90" type="curve" smooth="yes"/>
      <point x="329" y="125"/>
      <point x="313" y="145"/>
      <point x="277" y="145" type="curve"/>
      <point x="277" y="35"/>
      <point x="253" y="-10"/>
      <point x="186" y="-10" type="curve" smooth="yes"/>
      <point x="126" y="-10"/>
      <point x="92" y="26"/>
      <point x="92" y="103" type="curve" smooth="yes"/>
      <point x="92" y="166"/>
      <point x="126" y="193"/>
      <point x="180" y="219" type="curve"/>
      <point x="180" y="258" type="line"/>
      <point x="266" y="292"/>
      <point x="317" y="327"/>
      <point x="317" y="408" type="curve" smooth="yes"/>
      <point x="317" y="494"/>
      <point x="264" y="544"/>
      <point x="173" y="544" type="curve" smooth="yes"/>
      <point x="90" y="544"/>
      <point x="43" y="506"/>
      <point x="43" y="449" type="curve" smooth="yes"/>
      <point x="43" y="416"/>
      <point x="61" y="399"/>
      <point x="98" y="399" type="curve"/>
      <point x="98" y="495"/>
      <point x="119" y="534"/>
      <point x="176" y="534" type="curve" smooth="yes"/>
      <point x="229" y="534"/>
      <point x="256" y="499"/>
      <point x="256" y="437" type="curve" smooth="yes"/>
      <point x="256" y="391"/>
      <point x="230" y="358"/>
      <point x="178" y="336" type="curve"/>
      <point x="178" y="295" type="line"/>
      <point x="93" y="261"/>
      <point x="31" y="224"/>
      <point x="31" y="126" type="curve" smooth="yes"/>
      <point x="31" y="35"/>
      <point x="87" y="-20"/>
    </contour>
  </outline>
</glyph>
<glyph name="uni1D2F" format="2">
  <advance width="343"/>
  <unicode hex="1D2F"/>
  <anchor x="171.6" y="287.0" name="bottom"/>
  <anchor x="171.6" y="715.4" name="top"/>
  <anchor x="330.85" y="715.4" name="topright"/>
  <outline>
    <contour>
      <point x="12" y="509" type="line"/>
      <point x="317" y="509" type="line"/>
      <point x="317" y="515" type="line"/>
      <point x="12" y="515" type="line"/>
    </contour>
    <component base="B" xScale="0.65" yScale="0.6" yOffset="287"/>
  </outline>
</glyph>
<glyph name="uni1D75" format="2">
  <advance width="290"/>
  <unicode hex="1D75"/>
  <anchor x="186" y="0" name="bottom"/>
  <anchor x="146" y="268" name="center"/>
  <anchor x="128" y="658" name="top"/>
  <anchor x="279" y="658" name="topright"/>
  <outline>
    <contour>
      <point x="-35" y="232" type="curve"/>
      <point x="-25" y="232" type="line"/>
      <point x="-22" y="259"/>
      <point x="-12" y="298"/>
      <point x="31" y="298" type="curve" smooth="yes"/>
      <point x="88" y="298"/>
      <point x="125" y="230"/>
      <point x="188" y="230" type="curve" smooth="yes"/>
      <point x="245" y="230"/>
      <point x="269" y="286"/>
      <point x="271" y="344" type="curve"/>
      <point x="261" y="344" type="line"/>
      <point x="259" y="316"/>
      <point x="249" y="278"/>
      <point x="206" y="278" type="curve" smooth="yes"/>
      <point x="150" y="278"/>
      <point x="112" y="346"/>
      <point x="48" y="346" type="curve" smooth="yes"/>
      <point x="-9" y="346"/>
      <point x="-32" y="290"/>
    </contour>
    <component base="t"/>
  </outline>
</glyph>
<glyph name="uni1D76" format="2">
  <advance width="408"/>
  <unicode hex="1D76"/>
  <anchor x="204" y="0" name="bottom"/>
  <anchor x="204" y="536" name="top"/>
  <anchor x="380" y="536" name="topright"/>
  <outline>
    <contour>
      <point x="38" y="212" type="curve"/>
      <point x="48" y="212" type="line"/>
      <point x="54" y="256"/>
      <point x="68" y="280"/>
      <point x="105" y="280" type="curve" smooth="yes"/>
      <point x="169" y="280"/>
      <point x="213" y="215"/>
      <point x="279" y="215" type="curve" smooth="yes"/>
      <point x="338" y="215"/>
      <point x="360" y="268"/>
      <point x="363" y="329" type="curve"/>
      <point x="354" y="329" type="line"/>
      <point x="348" y="292"/>
      <point x="339" y="262"/>
      <point x="296" y="262" type="curve" smooth="yes"/>
      <point x="233" y="262"/>
      <point x="190" y="326"/>
      <point x="123" y="326" type="curve" smooth="yes"/>
      <point x="63" y="326"/>
      <point x="41" y="273"/>
    </contour>
    <component base="z"/>
  </outline>
</glyph>
<glyph name="uni1D7A" format="2">
  <advance width="803"/>
  <unicode hex="1D7A"/>
  <anchor x="186" y="0" name="bottom_1"/>
  <anchor x="539" y="0" name="bottom_2"/>
  <anchor x="146" y="268" name="center_1"/>
  <anchor x="539" y="268" name="center_2"/>
  <anchor x="128" y="658" name="top_1"/>
  <anchor x="539" y="760" name="top_2"/>
  <anchor x="279" y="658" name="topright_1"/>
  <anchor x="728" y="760" name="topright_2"/>
  <outline>
    <contour>
      <point x="52" y="-110" type="line"/>
      <point x="64" y="-110" type="line"/>
      <point x="630" y="760" type="line"/>
      <point x="618" y="760" type="line"/>
    </contour>
    <component base="t"/>
    <component base="h" xOffset="284"/>
  </outline>
</glyph>
<glyph name="uni1D7B" format="2">
  <advance width="266"/>
  <unicode hex="1D7B"/>
  <anchor x="130" y="0" name="bottom"/>
  <anchor x="130" y="536" name="top"/>
  <outline>
    <contour>
      <point x="5" y="282" type="line"/>
      <point x="260" y="282" type="line"/>
      <point x="260" y="292" type="line"/>
      <point x="5" y="292" type="line"/>
    </contour>
    <component base="uni026A"/>
  </outline>
</glyph>
<glyph name="uni1D7C" format="2">
  <advance width="276"/>
  <unicode hex="1D7C"/>
  <anchor x="138" y="0" name="bottom"/>
  <anchor x="138" y="536" name="top"/>
  <outline>
    <contour>
      <point x="7" y="284" type="line"/>
      <point x="253" y="284" type="line"/>
      <point x="253" y="294" type="line"/>
      <point x="7" y="294" type="line"/>
    </contour>
    <component base="iotaLatin"/>
  </outline>
</glyph>
<glyph name="uni1D83" format="2">
  <advance width="619"/>
  <unicode hex="1D83"/>
  <anchor x="246" y="-238" name="bottom"/>
  <anchor x="246" y="536" name="top"/>
  <anchor x="487" y="536" name="topright"/>
  <outline>
    <contour>
      <point x="524" y="-199" type="curve" smooth="yes"/>
      <point x="577" y="-199"/>
      <point x="598" y="-165"/>
      <point x="598" y="-81" type="curve" smooth="yes"/>
      <point x="598" y="104" type="line"/>
      <point x="378" y="104" type="line"/>
      <point x="378" y="94" type="line"/>
      <point x="588" y="94" type="line"/>
      <point x="588" y="-72" type="line" smooth="yes"/>
      <point x="588" y="-125"/>
      <point x="572" y="-145"/>
      <point x="527" y="-145" type="curve" smooth="yes"/>
      <point x="497" y="-145"/>
      <point x="479" y="-132"/>
      <point x="473" y="-111" type="curve"/>
      <point x="464" y="-116"/>
      <point x="459" y="-128"/>
      <point x="459" y="-144" type="curve" smooth="yes"/>
      <point x="459" y="-178"/>
      <point x="483" y="-199"/>
    </contour>
    <component base="uni0261"/>
  </outline>
</glyph>
<glyph name="uni1D96" format="2">
  <advance width="260"/>
  <unicode hex="1D96"/>
  <anchor x="130" y="0" name="bottom"/>
  <anchor x="130" y="752" name="top"/>
  <anchor x="224" y="752" name="topright"/>
  <outline>
    <contour>
      <point x="312" y="-199" type="curve" smooth="yes"/>
      <point x="353" y="-199"/>
      <point x="377" y="-178"/>
      <point x="377" y="-144" type="curve" smooth="yes"/>
      <point x="377" y="-128"/>
      <point x="372" y="-116"/>
      <point x="363" y="-111" type="curve"/>
      <point x="357" y="-132"/>
      <point x="339" y="-145"/>
      <point x="309" y="-145" type="curve" smooth="yes"/>
      <point x="264" y="-145"/>
      <point x="248" y="-125"/>
      <point x="248" y="-72" type="curve" smooth="yes"/>
      <point x="248" y="10" type="line"/>
      <point x="238" y="10" type="line"/>
      <point x="238" y="-81" type="line" smooth="yes"/>
      <point x="238" y="-165"/>
      <point x="259" y="-199"/>
    </contour>
    <component base="i"/>
  </outline>
</glyph>
<glyph name="uni1D99" format="2">
  <advance width="510"/>
  <unicode hex="1D99"/>
  <anchor x="255" y="0" name="bottom"/>
  <anchor x="255" y="536" name="top"/>
  <anchor x="474" y="536" name="topright"/>
  <outline>
    <contour>
      <point x="553" y="-199" type="curve" smooth="yes"/>
      <point x="594" y="-199"/>
      <point x="618" y="-178"/>
      <point x="618" y="-144" type="curve" smooth="yes"/>
      <point x="618" y="-128"/>
      <point x="613" y="-116"/>
      <point x="604" y="-111" type="curve"/>
      <point x="598" y="-132"/>
      <point x="580" y="-145"/>
      <point x="550" y="-145" type="curve" smooth="yes"/>
      <point x="505" y="-145"/>
      <point x="489" y="-125"/>
      <point x="489" y="-72" type="curve" smooth="yes"/>
      <point x="489" y="10" type="line"/>
      <point x="479" y="10" type="line"/>
      <point x="479" y="-81" type="line" smooth="yes"/>
      <point x="479" y="-165"/>
      <point x="500" y="-199"/>
    </contour>
    <component base="u"/>
  </outline>
</glyph>
<glyph name="uni1FCD" format="2">
  <advance width="316"/>
  <unicode hex="1FCD"/>
  <anchor x="163" y="536" name="_top"/>
  <anchor x="163" y="721" name="top"/>
  <outline>
    <contour>
      <point x="49" y="549" type="line"/>
      <point x="123" y="569"/>
      <point x="146" y="611"/>
      <point x="146" y="655" type="curve" smooth="yes"/>
      <point x="146" y="694"/>
      <point x="126" y="721"/>
      <point x="93" y="721" type="curve" smooth="yes"/>
      <point x="71" y="721"/>
      <point x="57" y="707"/>
      <point x="57" y="686" type="curve" smooth="yes"/>
      <point x="57" y="646"/>
      <point x="109" y="659"/>
      <point x="109" y="623" type="curve" smooth="yes"/>
      <point x="109" y="587"/>
      <point x="86" y="571"/>
      <point x="49" y="559" type="curve"/>
    </contour>
    <contour>
      <point x="268" y="556" type="curve"/>
      <point x="276" y="556" type="line"/>
      <point x="276" y="566" type="line"/>
      <point x="263" y="603"/>
      <point x="243" y="671"/>
      <point x="233" y="715" type="curve"/>
      <point x="177" y="715" type="line"/>
      <point x="177" y="706" type="line"/>
      <point x="197" y="667"/>
      <point x="243" y="592"/>
    </contour>
  </outline>
</glyph>
<glyph name="uni1FEF" format="2">
  <unicode hex="1FEF"/>
  <anchor x="122" y="536" name="_top"/>
  <anchor x="122" y="760" name="top"/>
  <outline>
    <contour>
      <point x="169" y="596" type="curve"/>
      <point x="177" y="596" type="line"/>
      <point x="177" y="608" type="line"/>
      <point x="163" y="647"/>
      <point x="142" y="714"/>
      <point x="134" y="760" type="curve"/>
      <point x="70" y="760" type="line"/>
      <point x="70" y="750" type="line"/>
      <point x="92" y="708"/>
      <point x="136" y="636"/>
    </contour>
  </outline>
</glyph>
<glyph name="uni1FFD" format="2">
  <advance width="296"/>
  <unicode hex="1FFD"/>
  <anchor x="144" y="536" name="_top"/>
  <anchor x="144" y="760" name="top"/>
  <outline>
    <contour>
      <point x="89" y="596" type="line"/>
      <point x="97" y="596" type="line"/>
      <point x="129" y="633"/>
      <point x="175" y="713"/>
      <point x="195" y="750" type="curve"/>
      <point x="195" y="760" type="line"/>
      <point x="130" y="760" type="line"/>
      <point x="122" y="714"/>
      <point x="103" y="650"/>
      <point x="89" y="608" type="curve"/>
    </contour>
  </outline>
</glyph>
<glyph name="plussuperior" format="2">
  <advance width="313"/>
  <unicode hex="207A"/>
  <outline>
    <contour>
      <point x="146" y="329" type="line"/>
      <point x="166" y="329" type="line"/>
      <point x="166" y="472" type="line"/>
      <point x="273" y="472" type="line"/>
      <point x="273" y="492" type="line"/>
      <point x="166" y="492" type="line"/>
      <point x="166" y="634" type="line"/>
      <point x="146" y="634" type="line"/>
      <point x="146" y="492" type="line"/>
      <point x="39" y="492" type="line"/>
      <point x="39" y="472" type="line"/>
      <point x="146" y="472" type="line"/>
    </contour>
  </outline>
</glyph>
<glyph name="equalsuperior" format="2">
  <advance width="313"/>
  <unicode hex="207C"/>
  <outline>
    <contour>
      <point x="25" y="547" type="line"/>
      <point x="287" y="547" type="line"/>
      <point x="287" y="567" type="line"/>
      <point x="25" y="567" type="line"/>
    </contour>
    <contour>
      <point x="25" y="396" type="line"/>
      <point x="287" y="396" type="line"/>
      <point x="287" y="416" type="line"/>
      <point x="25" y="416" type="line"/>
    </contour>
  </outline>
</glyph>
<glyph name="parenleftsuperior" format="2">
  <advance width="198"/>
  <unicode hex="207D"/>
  <outline>
    <contour>
      <point x="177" y="195" type="curve"/>
      <point x="177" y="207" type="line"/>
      <point x="109" y="268"/>
      <point x="88" y="359"/>
      <point x="88" y="491" type="curve" smooth="yes"/>
      <point x="88" y="622"/>
      <point x="109" y="715"/>
      <point x="177" y="776" type="curve"/>
      <point x="177" y="787" type="line"/>
      <point x="83" y="732"/>
      <point x="31" y="652"/>
      <point x="31" y="491" type="curve" smooth="yes"/>
      <point x="31" y="327"/>
      <point x="79" y="250"/>
    </contour>
  </outline>
</glyph>
<glyph name="parenrightsuperior" format="2">
  <advance width="198"/>
  <unicode hex="207E"/>
  <outline>
    <contour>
      <point x="28" y="195" type="line"/>
      <point x="126" y="250"/>
      <point x="174" y="327"/>
      <point x="174" y="491" type="curve" smooth="yes"/>
      <point x="174" y="652"/>
      <point x="122" y="732"/>
      <point x="28" y="787" type="curve"/>
      <point x="28" y="776" type="line"/>
      <point x="96" y="715"/>
      <point x="117" y="622"/>
      <point x="117" y="491" type="curve" smooth="yes"/>
      <point x="117" y="359"/>
      <point x="96" y="268"/>
      <point x="28" y="207" type="curve"/>
    </contour>
  </outline>
</glyph>
<glyph name="uni20A9" format="2">
  <advance width="828"/>
  <unicode hex="20A9"/>
  <outline>
    <contour>
      <point x="217" y="0" type="line"/>
      <point x="277" y="0" type="line"/>
      <point x="346" y="309" type="line"/>
      <point x="478" y="309" type="line"/>
      <point x="556" y="0" type="line"/>
      <point x="602" y="0" type="line"/>
      <point x="669" y="309" type="line"/>
      <point x="807" y="309" type="line"/>
      <point x="807" y="319" type="line"/>
      <point x="672" y="319" type="line"/>
      <point x="695" y="426" type="line"/>
      <point x="807" y="426" type="line"/>
      <point x="807" y="436" type="line"/>
      <point x="697" y="436" type="line"/>
      <point x="742" y="642" type="line" smooth="yes"/>
      <point x="754" y="697"/>
      <point x="767" y="704"/>
      <point x="806" y="704" type="curve" smooth="yes"/>
      <point x="827" y="704" type="line"/>
      <point x="827" y="714" type="line"/>
      <point x="643" y="714" type="line"/>
      <point x="643" y="704" type="line"/>
      <point x="680" y="704" type="line" smooth="yes"/>
      <point x="723" y="704"/>
      <point x="732" y="694"/>
      <point x="732" y="670" type="curve" smooth="yes"/>
      <point x="732" y="656"/>
      <point x="730" y="637"/>
      <point x="723" y="603" type="curve" smooth="yes"/>
      <point x="686" y="436" type="line"/>
      <point x="534" y="436" type="line"/>
      <point x="463" y="711" type="line"/>
      <point x="425" y="711" type="line"/>
      <point x="364" y="436" type="line"/>
      <point x="213" y="436" type="line"/>
      <point x="180" y="599" type="line" smooth="yes"/>
      <point x="175" y="629"/>
      <point x="170" y="657"/>
      <point x="170" y="669" type="curve" smooth="yes"/>
      <point x="170" y="693"/>
      <point x="180" y="704"/>
      <point x="222" y="704" type="curve" smooth="yes"/>
      <point x="245" y="704" type="line"/>
      <point x="245" y="714" type="line"/>
      <point x="6" y="714" type="line"/>
      <point x="6" y="704" type="line"/>
      <point x="22" y="704" type="line" smooth="yes"/>
      <point x="55" y="704"/>
      <point x="69" y="697"/>
      <point x="78" y="654" type="curve" smooth="yes"/>
      <point x="125" y="436" type="line"/>
      <point x="20" y="436" type="line"/>
      <point x="20" y="426" type="line"/>
      <point x="127" y="426" type="line"/>
      <point x="149" y="319" type="line"/>
      <point x="20" y="319" type="line"/>
      <point x="20" y="309" type="line"/>
      <point x="151" y="309" type="line"/>
    </contour>
    <contour>
      <point x="282" y="74" type="line"/>
      <point x="239" y="309" type="line"/>
      <point x="335" y="309" type="line"/>
    </contour>
    <contour>
      <point x="237" y="319" type="line"/>
      <point x="215" y="426" type="line"/>
      <point x="361" y="426" type="line"/>
      <point x="338" y="319" type="line"/>
    </contour>
    <contour>
      <point x="614" y="105" type="line"/>
      <point x="567" y="309" type="line"/>
      <point x="659" y="309" type="line"/>
    </contour>
    <contour>
      <point x="348" y="319" type="line"/>
      <point x="372" y="426" type="line"/>
      <point x="450" y="426" type="line"/>
      <point x="476" y="319" type="line"/>
    </contour>
    <contour>
      <point x="374" y="436" type="line"/>
      <point x="410" y="594" type="line"/>
      <point x="447" y="436" type="line"/>
    </contour>
    <contour>
      <point x="564" y="319" type="line"/>
      <point x="537" y="426" type="line"/>
      <point x="684" y="426" type="line"/>
      <point x="661" y="319" type="line"/>
    </contour>
  </outline>
</glyph>
<glyph name="Euro" format="2">
  <advance width="443"/>
  <unicode hex="20AC"/>
  <outline>
    <contour>
      <point x="291" y="-10" type="curve" smooth="yes"/>
      <point x="373" y="-10"/>
      <point x="418" y="33"/>
      <point x="418" y="71" type="curve" smooth="yes"/>
      <point x="418" y="91"/>
      <point x="407" y="106"/>
      <point x="385" y="110" type="curve"/>
      <point x="376" y="35"/>
      <point x="353" y="0"/>
      <point x="298" y="0" type="curve" smooth="yes"/>
      <point x="212" y="0"/>
      <point x="173" y="96"/>
      <point x="166" y="287" type="curve"/>
      <point x="298" y="287" type="line"/>
      <point x="298" y="297" type="line"/>
      <point x="166" y="297" type="line"/>
      <point x="165" y="318"/>
      <point x="165" y="332"/>
      <point x="165" y="354" type="curve" smooth="yes"/>
      <point x="165" y="373"/>
      <point x="165" y="386"/>
      <point x="166" y="404" type="curve"/>
      <point x="330" y="404" type="line"/>
      <point x="330" y="414" type="line"/>
      <point x="166" y="414" type="line"/>
      <point x="171" y="609"/>
      <point x="204" y="712"/>
      <point x="285" y="712" type="curve" smooth="yes"/>
      <point x="338" y="712"/>
      <point x="351" y="668"/>
      <point x="351" y="569" type="curve"/>
      <point x="396" y="569"/>
      <point x="420" y="589"/>
      <point x="420" y="626" type="curve" smooth="yes"/>
      <point x="420" y="678"/>
      <point x="373" y="722"/>
      <point x="290" y="722" type="curve" smooth="yes"/>
      <point x="161" y="722"/>
      <point x="95" y="614"/>
      <point x="84" y="414" type="curve"/>
      <point x="28" y="414" type="line"/>
      <point x="28" y="404" type="line"/>
      <point x="84" y="404" type="line"/>
      <point x="83" y="384"/>
      <point x="83" y="370"/>
      <point x="83" y="350" type="curve" smooth="yes"/>
      <point x="83" y="329"/>
      <point x="83" y="316"/>
      <point x="84" y="297" type="curve"/>
      <point x="28" y="297" type="line"/>
      <point x="28" y="287" type="line"/>
      <point x="85" y="287" type="line"/>
      <point x="95" y="97"/>
      <point x="161" y="-10"/>
    </contour>
  </outline>
</glyph>
<glyph name="uni20B2" format="2">
  <advance width="576"/>
  <unicode hex="20B2"/>
  <anchor x="318" y="0" name="bottom"/>
  <anchor x="318" y="714" name="top"/>
  <anchor x="556" y="714" name="topright"/>
  <outline>
    <contour>
      <point x="296" y="-78" type="line"/>
      <point x="306" y="-78" type="line"/>
      <point x="306" y="780" type="line"/>
      <point x="296" y="780" type="line"/>
    </contour>
    <component base="G"/>
  </outline>
</glyph>
<glyph name="uni20B4" format="2">
  <advance width="435"/>
  <unicode hex="20B4"/>
  <anchor x="219" y="0" name="bottom"/>
  <anchor x="219" y="714" name="top"/>
  <anchor x="21" y="714" name="topright"/>
  <outline>
    <contour>
      <point x="229" y="-10" type="curve" smooth="yes"/>
      <point x="357" y="-10"/>
      <point x="400" y="67"/>
      <point x="400" y="125" type="curve" smooth="yes"/>
      <point x="400" y="169"/>
      <point x="375" y="194"/>
      <point x="339" y="194" type="curve"/>
      <point x="339" y="74"/>
      <point x="304" y="0"/>
      <point x="214" y="0" type="curve" smooth="yes"/>
      <point x="142" y="0"/>
      <point x="101" y="47"/>
      <point x="101" y="142" type="curve" smooth="yes"/>
      <point x="101" y="248"/>
      <point x="153" y="279"/>
      <point x="244" y="331" type="curve" smooth="yes"/>
      <point x="340" y="386"/>
      <point x="384" y="443"/>
      <point x="384" y="536" type="curve" smooth="yes"/>
      <point x="384" y="654"/>
      <point x="314" y="724"/>
      <point x="205" y="724" type="curve" smooth="yes"/>
      <point x="104" y="724"/>
      <point x="53" y="663"/>
      <point x="53" y="606" type="curve" smooth="yes"/>
      <point x="53" y="571"/>
      <point x="73" y="550"/>
      <point x="119" y="550" type="curve"/>
      <point x="119" y="660"/>
      <point x="151" y="714"/>
      <point x="216" y="714" type="curve" smooth="yes"/>
      <point x="276" y="714"/>
      <point x="319" y="668"/>
      <point x="319" y="577" type="curve" smooth="yes"/>
      <point x="319" y="479"/>
      <point x="270" y="450"/>
      <point x="183" y="399" type="curve" smooth="yes"/>
      <point x="95" y="347"/>
      <point x="35" y="305"/>
      <point x="35" y="189" type="curve" smooth="yes"/>
      <point x="35" y="66"/>
      <point x="102" y="-10"/>
    </contour>
    <contour>
      <point x="5" y="298" type="line"/>
      <point x="436" y="298" type="line"/>
      <point x="436" y="308" type="line"/>
      <point x="5" y="308" type="line"/>
    </contour>
    <contour>
      <point x="5" y="435" type="line"/>
      <point x="436" y="435" type="line"/>
      <point x="436" y="445" type="line"/>
      <point x="5" y="445" type="line"/>
    </contour>
  </outline>
</glyph>
<glyph name="response" format="2">
  <advance width="531"/>
  <unicode hex="211F"/>
  <anchor x="295" y="0" name="bottom"/>
  <anchor x="266" y="714" name="top"/>
  <anchor x="511" y="714" name="topright"/>
  <outline>
    <contour>
      <point x="102" y="-122" type="line"/>
      <point x="112" y="-122" type="line"/>
      <point x="390" y="799" type="line"/>
      <point x="223" y="870" type="line"/>
      <point x="219" y="861" type="line"/>
      <point x="378" y="794" type="line"/>
    </contour>
    <component base="R"/>
  </outline>
</glyph>
<glyph name="versicle" format="2">
  <advance width="538"/>
  <unicode hex="2123"/>
  <anchor x="269" y="0" name="bottom"/>
  <anchor x="269" y="714" name="top"/>
  <anchor x="558" y="714" name="topright"/>
  <outline>
    <contour>
      <point x="102" y="-122" type="line"/>
      <point x="112" y="-122" type="line"/>
      <point x="390" y="799" type="line"/>
      <point x="223" y="870" type="line"/>
      <point x="219" y="861" type="line"/>
      <point x="378" y="794" type="line"/>
    </contour>
    <component base="V"/>
  </outline>
</glyph>
<glyph name="uni2C61" format="2">
  <advance width="253"/>
  <unicode hex="2C61"/>
  <anchor x="127" y="0" name="bottom"/>
  <anchor x="127" y="760" name="top"/>
  <anchor x="127" y="268" name="center"/>
  <anchor x="228" y="760" name="topright"/>
  <outline>
    <contour>
      <point x="1" y="426" type="line"/>
      <point x="254" y="426" type="line"/>
      <point x="254" y="436" type="line"/>
      <point x="1" y="436" type="line"/>
    </contour>
    <contour>
      <point x="1" y="306" type="line"/>
      <point x="254" y="306" type="line"/>
      <point x="254" y="316" type="line"/>
      <point x="1" y="316" type="line"/>
    </contour>
    <component base="l"/>
  </outline>
</glyph>
<glyph name="uni2C66" format="2">
  <advance width="289"/>
  <unicode hex="2C66"/>
  <anchor x="145" y="-201" name="bottom"/>
  <anchor x="145" y="714" name="top"/>
  <anchor x="146" y="268" name="center"/>
  <anchor x="279" y="658" name="topright"/>
  <outline>
    <contour>
      <point x="80" y="-201" type="line"/>
      <point x="90" y="-201" type="line"/>
      <point x="273" y="714" type="line"/>
      <point x="263" y="714" type="line"/>
    </contour>
    <component base="t"/>
  </outline>
</glyph>
<glyph name="upwardsancora" format="2">
  <advance width="593"/>
  <unicode hex="2E15"/>
  <outline>
    <contour>
      <point x="84" y="71" type="line"/>
      <point x="449" y="476" type="line"/>
      <point x="486" y="433"/>
      <point x="504" y="393"/>
      <point x="504" y="348" type="curve" smooth="yes"/>
      <point x="504" y="324"/>
      <point x="499" y="299"/>
      <point x="488" y="272" type="curve"/>
      <point x="502" y="257" type="line"/>
      <point x="516" y="290"/>
      <point x="523" y="321"/>
      <point x="523" y="350" type="curve" smooth="yes"/>
      <point x="523" y="399"/>
      <point x="502" y="446"/>
      <point x="460" y="492" type="curve" smooth="yes"/>
      <point x="414" y="542"/>
      <point x="369" y="566"/>
      <point x="318" y="566" type="curve" smooth="yes"/>
      <point x="294" y="566"/>
      <point x="267" y="561"/>
      <point x="239" y="549" type="curve"/>
      <point x="251" y="535" type="line"/>
      <point x="274" y="544"/>
      <point x="296" y="549"/>
      <point x="316" y="549" type="curve" smooth="yes"/>
      <point x="358" y="549"/>
      <point x="396" y="530"/>
      <point x="436" y="490" type="curve"/>
      <point x="70" y="85" type="line"/>
    </contour>
  </outline>
</glyph>
<glyph name="uniA670" format="2">
  <unicode hex="A670"/>
  <outline>
    <contour>
      <point x="179" y="451" type="line"/>
      <point x="225" y="509" type="line"/>
      <point x="271" y="451" type="line"/>
      <point x="302" y="489" type="line"/>
      <point x="255" y="547" type="line"/>
      <point x="302" y="606" type="line"/>
      <point x="272" y="643" type="line"/>
      <point x="225" y="585" type="line"/>
      <point x="179" y="643" type="line"/>
      <point x="148" y="606" type="line"/>
      <point x="195" y="547" type="line"/>
      <point x="148" y="489" type="line"/>
    </contour>
    <contour>
      <point x="-272" y="-105" type="line"/>
      <point x="-225" y="-47" type="line"/>
      <point x="-179" y="-105" type="line"/>
      <point x="-149" y="-67" type="line"/>
      <point x="-194" y="-9" type="line"/>
      <point x="-149" y="50" type="line"/>
      <point x="-179" y="87" type="line"/>
      <point x="-225" y="29" type="line"/>
      <point x="-272" y="87" type="line"/>
      <point x="-302" y="50" type="line"/>
      <point x="-255" y="-9" type="line"/>
      <point x="-302" y="-67" type="line"/>
    </contour>
    <contour>
      <point x="-256" y="174" type="line"/>
      <point x="-226" y="212" type="line"/>
      <point x="-272" y="270" type="line"/>
      <point x="-226" y="328" type="line"/>
      <point x="-256" y="366" type="line"/>
      <point x="-303" y="308" type="line"/>
      <point x="-350" y="366" type="line"/>
      <point x="-380" y="329" type="line"/>
      <point x="-333" y="270" type="line"/>
      <point x="-380" y="213" type="line"/>
      <point x="-350" y="175" type="line"/>
      <point x="-303" y="234" type="line"/>
    </contour>
    <contour>
      <point x="-47" y="-203" type="line"/>
      <point x="0" y="-145" type="line"/>
      <point x="46" y="-203" type="line"/>
      <point x="77" y="-165" type="line"/>
      <point x="30" y="-107" type="line"/>
      <point x="77" y="-48" type="line"/>
      <point x="47" y="-11" type="line"/>
      <point x="0" y="-69" type="line"/>
      <point x="-47" y="-11" type="line"/>
      <point x="-77" y="-48" type="line"/>
      <point x="-30" y="-107" type="line"/>
      <point x="-77" y="-165" type="line"/>
    </contour>
    <contour>
      <point x="-272" y="451" type="line"/>
      <point x="-225" y="509" type="line"/>
      <point x="-179" y="451" type="line"/>
      <point x="-149" y="489" type="line"/>
      <point x="-194" y="547" type="line"/>
      <point x="-149" y="606" type="line"/>
      <point x="-179" y="643" type="line"/>
      <point x="-225" y="585" type="line"/>
      <point x="-272" y="643" type="line"/>
      <point x="-302" y="606" type="line"/>
      <point x="-255" y="547" type="line"/>
      <point x="-302" y="489" type="line"/>
    </contour>
    <contour>
      <point x="179" y="-105" type="line"/>
      <point x="225" y="-47" type="line"/>
      <point x="271" y="-105" type="line"/>
      <point x="302" y="-67" type="line"/>
      <point x="255" y="-9" type="line"/>
      <point x="302" y="50" type="line"/>
      <point x="272" y="87" type="line"/>
      <point x="225" y="29" type="line"/>
      <point x="179" y="87" type="line"/>
      <point x="148" y="50" type="line"/>
      <point x="195" y="-9" type="line"/>
      <point x="148" y="-67" type="line"/>
    </contour>
    <contour>
      <point x="254" y="174" type="line"/>
      <point x="302" y="233" type="line"/>
      <point x="348" y="174" type="line"/>
      <point x="378" y="212" type="line"/>
      <point x="332" y="270" type="line"/>
      <point x="378" y="328" type="line"/>
      <point x="348" y="366" type="line"/>
      <point x="302" y="308" type="line"/>
      <point x="254" y="366" type="line"/>
      <point x="225" y="329" type="line"/>
      <point x="271" y="270" type="line"/>
      <point x="225" y="212" type="line"/>
    </contour>
    <contour>
      <point x="-47" y="552" type="line"/>
      <point x="0" y="610" type="line"/>
      <point x="46" y="552" type="line"/>
      <point x="77" y="590" type="line"/>
      <point x="30" y="648" type="line"/>
      <point x="77" y="707" type="line"/>
      <point x="47" y="744" type="line"/>
      <point x="0" y="686" type="line"/>
      <point x="-47" y="744" type="line"/>
      <point x="-77" y="707" type="line"/>
      <point x="-30" y="648" type="line"/>
      <point x="-77" y="590" type="line"/>
    </contour>
  </outline>
</glyph>
<glyph name="uniA672" format="2">
  <unicode hex="A672"/>
  <outline>
    <contour>
      <point x="-19" y="497" type="line"/>
      <point x="19" y="497" type="line"/>
      <point x="19" y="594" type="line"/>
      <point x="105" y="594" type="line"/>
      <point x="105" y="635" type="line"/>
      <point x="19" y="635" type="line"/>
      <point x="19" y="729" type="line"/>
      <point x="-19" y="729" type="line"/>
      <point x="-19" y="635" type="line"/>
      <point x="-105" y="635" type="line"/>
      <point x="-105" y="594" type="line"/>
      <point x="-19" y="594" type="line"/>
    </contour>
    <contour>
      <point x="-136" y="-197" type="line"/>
      <point x="-98" y="-197" type="line"/>
      <point x="-98" y="36" type="line"/>
      <point x="-136" y="36" type="line"/>
    </contour>
    <contour>
      <point x="-340" y="57" type="line"/>
      <point x="-145" y="57" type="line"/>
      <point x="-145" y="98" type="line"/>
      <point x="-340" y="98" type="line"/>
    </contour>
    <contour>
      <point x="-19" y="-197" type="line"/>
      <point x="19" y="-197" type="line"/>
      <point x="19" y="36" type="line"/>
      <point x="-19" y="36" type="line"/>
    </contour>
    <contour>
      <point x="-340" y="252" type="line"/>
      <point x="-145" y="252" type="line"/>
      <point x="-145" y="293" type="line"/>
      <point x="-340" y="293" type="line"/>
    </contour>
    <contour>
      <point x="98" y="-197" type="line"/>
      <point x="137" y="-197" type="line"/>
      <point x="137" y="36" type="line"/>
      <point x="98" y="36" type="line"/>
    </contour>
    <contour>
      <point x="-340" y="447" type="line"/>
      <point x="-145" y="447" type="line"/>
      <point x="-145" y="488" type="line"/>
      <point x="-340" y="488" type="line"/>
    </contour>
    <contour>
      <point x="145" y="57" type="line"/>
      <point x="340" y="57" type="line"/>
      <point x="340" y="98" type="line"/>
      <point x="145" y="98" type="line"/>
    </contour>
    <contour>
      <point x="145" y="252" type="line"/>
      <point x="340" y="252" type="line"/>
      <point x="340" y="293" type="line"/>
      <point x="145" y="293" type="line"/>
    </contour>
    <contour>
      <point x="145" y="447" type="line"/>
      <point x="340" y="447" type="line"/>
      <point x="340" y="488" type="line"/>
      <point x="145" y="488" type="line"/>
    </contour>
  </outline>
</glyph>
<glyph name="uniA680" format="2">
  <advance width="547"/>
  <unicode hex="A680"/>
  <anchor x="274" y="0" name="bottom"/>
  <anchor x="274" y="714" name="top"/>
  <outline>
    <contour>
      <point x="216" y="714" type="line"/>
      <point x="231" y="714" type="line"/>
      <point x="231" y="845" type="line"/>
      <point x="216" y="845" type="line"/>
    </contour>
    <component base="afii10021"/>
  </outline>
</glyph>
<glyph name="uniA744" format="2">
  <advance width="567"/>
  <unicode hex="A744"/>
  <anchor x="284" y="0" name="bottom"/>
  <anchor x="284" y="714" name="top"/>
  <anchor x="547" y="714" name="topright"/>
  <outline>
    <contour>
      <point x="30" y="562" type="line"/>
      <point x="271" y="562" type="line"/>
      <point x="271" y="572" type="line"/>
      <point x="30" y="572" type="line"/>
    </contour>
    <contour>
      <point x="283" y="130" type="line"/>
      <point x="473" y="298" type="line"/>
      <point x="466" y="305" type="line"/>
      <point x="277" y="138" type="line"/>
    </contour>
    <component base="K"/>
  </outline>
</glyph>
<glyph name="uniA749" format="2">
  <advance width="254"/>
  <unicode hex="A749"/>
  <anchor x="127" y="0" name="bottom"/>
  <anchor x="127" y="268" name="center"/>
  <anchor x="127" y="760" name="top"/>
  <anchor x="228" y="760" name="topright"/>
  <outline>
    <contour>
      <point x="5" y="613" type="line"/>
      <point x="246" y="613" type="line"/>
      <point x="246" y="623" type="line"/>
      <point x="5" y="623" type="line"/>
    </contour>
    <component base="l"/>
  </outline>
</glyph>
<glyph name="uniA74B" format="2">
  <advance width="464"/>
  <unicode hex="A74B"/>
  <anchor x="232" y="0" name="bottom"/>
  <anchor x="232" y="268" name="center"/>
  <anchor x="232" y="536" name="top"/>
  <anchor x="448" y="536" name="topright"/>
  <outline>
    <contour>
      <point x="0" y="271" type="line"/>
      <point x="464" y="271" type="line"/>
      <point x="464" y="281" type="line"/>
      <point x="0" y="281" type="line"/>
    </contour>
    <component base="o"/>
  </outline>
</glyph>
<glyph name="uniA750" format="2">
  <advance width="485"/>
  <unicode hex="A750"/>
  <anchor x="147" y="0" name="bottom"/>
  <anchor x="243" y="714" name="top"/>
  <anchor x="489" y="714" name="topright"/>
  <outline>
    <contour>
      <point x="28" y="161" type="line"/>
      <point x="281" y="161" type="line"/>
      <point x="281" y="171" type="line"/>
      <point x="28" y="171" type="line"/>
    </contour>
    <component base="P"/>
  </outline>
</glyph>
<glyph name="uniA751" format="2">
  <advance width="492"/>
  <unicode hex="A751"/>
  <anchor x="247" y="-234" name="bottom"/>
  <anchor x="247" y="536" name="top"/>
  <anchor x="477" y="536" name="topright"/>
  <outline>
    <contour>
      <point x="13" y="-101" type="line"/>
      <point x="268" y="-101" type="line"/>
      <point x="268" y="-91" type="line"/>
      <point x="13" y="-91" type="line"/>
    </contour>
    <component base="p"/>
  </outline>
</glyph>
<glyph name="uniA756" format="2">
  <advance width="597"/>
  <unicode hex="A756"/>
  <anchor x="298" y="-227" name="bottom"/>
  <anchor x="298" y="714" name="top"/>
  <anchor x="577" y="714" name="topright"/>
  <outline>
    <contour>
      <point x="217" y="-176" type="line"/>
      <point x="463" y="-69" type="line"/>
      <point x="459" y="-61" type="line"/>
      <point x="213" y="-167" type="line"/>
    </contour>
    <component base="Q"/>
  </outline>
</glyph>
<glyph name="uniA757" format="2">
  <advance width="492"/>
  <unicode hex="A757"/>
  <anchor x="246" y="-234" name="bottom"/>
  <anchor x="246" y="536" name="top"/>
  <anchor x="480" y="536" name="topright"/>
  <outline>
    <contour>
      <point x="222" y="-100" type="line"/>
      <point x="479" y="-100" type="line"/>
      <point x="479" y="-90" type="line"/>
      <point x="222" y="-90" type="line"/>
    </contour>
    <component base="q"/>
  </outline>
</glyph>
<glyph name="uniA75E" format="2">
  <advance width="538"/>
  <unicode hex="A75E"/>
  <anchor x="269" y="0" name="bottom"/>
  <anchor x="269" y="714" name="top"/>
  <anchor x="558" y="714" name="topright"/>
  <outline>
    <contour>
      <point x="109" y="0" type="line"/>
      <point x="119" y="0" type="line"/>
      <point x="320" y="714" type="line"/>
      <point x="310" y="714" type="line"/>
    </contour>
    <component base="V"/>
  </outline>
</glyph>
<glyph name="uniA75F" format="2">
  <advance width="463"/>
  <unicode hex="A75F"/>
  <anchor x="236" y="0" name="bottom"/>
  <anchor x="236" y="536" name="top"/>
  <anchor x="456" y="536" name="topright"/>
  <outline>
    <contour>
      <point x="101" y="-50" type="line"/>
      <point x="111" y="-50" type="line"/>
      <point x="311" y="596" type="line"/>
      <point x="301" y="596" type="line"/>
    </contour>
    <component base="v"/>
  </outline>
</glyph>
<glyph name="uniA793" format="2">
  <advance width="432"/>
  <unicode hex="A793"/>
  <anchor x="258" y="0" name="bottom"/>
  <anchor x="258" y="536" name="top"/>
  <anchor x="417" y="536" name="topright"/>
  <outline>
    <contour>
      <point x="15" y="272" type="line"/>
      <point x="249" y="272" type="line"/>
      <point x="249" y="282" type="line"/>
      <point x="15" y="282" type="line"/>
    </contour>
    <component base="c" xOffset="41"/>
  </outline>
</glyph>
<glyph name="uniA7A0" format="2">
  <advance width="634"/>
  <unicode hex="A7A0"/>
  <anchor x="324" y="-10" name="bottom"/>
  <anchor x="318" y="714" name="top"/>
  <anchor x="556" y="714" name="topright"/>
  <outline>
    <contour>
      <point x="-2" y="274" type="line"/>
      <point x="574" y="416" type="line"/>
      <point x="574" y="426" type="line"/>
      <point x="-2" y="284" type="line"/>
    </contour>
    <component base="G"/>
  </outline>
</glyph>
<glyph name="uniA7A1" format="2">
  <advance width="430"/>
  <unicode hex="A7A1"/>
  <anchor x="215" y="-239" name="bottom"/>
  <anchor x="211" y="536" name="top"/>
  <anchor x="443" y="536" name="topright"/>
  <outline>
    <contour>
      <point x="1" y="313" type="line"/>
      <point x="414" y="406" type="line"/>
      <point x="414" y="416" type="line"/>
      <point x="1" y="323" type="line"/>
    </contour>
    <component base="g"/>
  </outline>
</glyph>
<glyph name="uniA7A2" format="2">
  <advance width="623"/>
  <unicode hex="A7A2"/>
  <anchor x="304" y="0" name="bottom"/>
  <anchor x="304" y="714" name="top"/>
  <anchor x="547" y="714" name="topright"/>
  <outline>
    <contour>
      <point x="33" y="137" type="line"/>
      <point x="538" y="254" type="line"/>
      <point x="538" y="264" type="line"/>
      <point x="33" y="147" type="line"/>
    </contour>
    <component base="K"/>
  </outline>
</glyph>
<glyph name="uniA7A3" format="2">
  <advance width="473"/>
  <unicode hex="A7A3"/>
  <anchor x="237" y="760" name="top"/>
  <anchor x="237" y="0" name="bottom"/>
  <anchor x="464" y="760" name="topright"/>
  <outline>
    <contour>
      <point x="21" y="114" type="line"/>
      <point x="433" y="206" type="line"/>
      <point x="433" y="216" type="line"/>
      <point x="21" y="123" type="line"/>
    </contour>
    <component base="k"/>
  </outline>
</glyph>
<glyph name="uniA7A4" format="2">
  <advance width="666"/>
  <unicode hex="A7A4"/>
  <anchor x="304" y="0" name="bottom"/>
  <anchor x="304" y="714" name="top"/>
  <anchor x="588" y="714" name="topright"/>
  <outline>
    <contour>
      <point x="28" y="282" type="line"/>
      <point x="586" y="444" type="line"/>
      <point x="586" y="454" type="line"/>
      <point x="28" y="292" type="line"/>
    </contour>
    <component base="N"/>
  </outline>
</glyph>
<glyph name="uniA7A5" format="2">
  <advance width="514"/>
  <unicode hex="A7A5"/>
  <anchor x="257" y="0" name="bottom"/>
  <anchor x="257" y="536" name="top"/>
  <anchor x="494" y="536" name="topright"/>
  <outline>
    <contour>
      <point x="25" y="203" type="line"/>
      <point x="507" y="316" type="line"/>
      <point x="507" y="326" type="line"/>
      <point x="25" y="213" type="line"/>
    </contour>
    <component base="n" xOffset="-1"/>
  </outline>
</glyph>
<glyph name="uniA7A8" format="2">
  <advance width="435"/>
  <unicode hex="A7A8"/>
  <anchor x="217" y="0" name="bottom"/>
  <anchor x="217" y="714" name="top"/>
  <anchor x="415" y="714" name="topright"/>
  <outline>
    <contour>
      <point x="36" y="310" type="line"/>
      <point x="411" y="401" type="line"/>
      <point x="411" y="411" type="line"/>
      <point x="36" y="320" type="line"/>
    </contour>
    <component base="S"/>
  </outline>
</glyph>
<glyph name="uniA7A9" format="2">
  <advance width="360"/>
  <unicode hex="A7A9"/>
  <anchor x="181" y="0" name="bottom"/>
  <anchor x="181" y="536" name="top"/>
  <anchor x="334" y="536" name="topright"/>
  <outline>
    <contour>
      <point x="13" y="229" type="line"/>
      <point x="347" y="321" type="line"/>
      <point x="347" y="331" type="line"/>
      <point x="13" y="239" type="line"/>
    </contour>
    <component base="s"/>
  </outline>
</glyph>
<glyph name="uniA7AE" format="2">
  <advance width="460"/>
  <unicode hex="A7AE"/>
  <outline>
    <contour>
      <point x="34" y="0" type="line"/>
      <point x="426" y="0" type="line"/>
      <point x="431" y="172" type="line"/>
      <point x="421" y="172" type="line"/>
      <point x="418" y="108" type="line" smooth="yes"/>
      <point x="414" y="30"/>
      <point x="397" y="10"/>
      <point x="327" y="10" type="curve" smooth="yes"/>
      <point x="272" y="10" type="line"/>
      <point x="272" y="704" type="line"/>
      <point x="325" y="704" type="line" smooth="yes"/>
      <point x="395" y="704"/>
      <point x="415" y="684"/>
      <point x="418" y="595" type="curve" smooth="yes"/>
      <point x="420" y="542" type="line"/>
      <point x="430" y="542" type="line"/>
      <point x="425" y="714" type="line"/>
      <point x="35" y="714" type="line"/>
      <point x="30" y="542" type="line"/>
      <point x="40" y="542" type="line"/>
      <point x="42" y="595" type="line" smooth="yes"/>
      <point x="45" y="684"/>
      <point x="65" y="704"/>
      <point x="136" y="704" type="curve" smooth="yes"/>
      <point x="188" y="704" type="line"/>
      <point x="188" y="10" type="line"/>
      <point x="134" y="10" type="line" smooth="yes"/>
      <point x="62" y="10"/>
      <point x="48" y="30"/>
      <point x="43" y="108" type="curve" smooth="yes"/>
      <point x="39" y="172" type="line"/>
      <point x="29" y="172" type="line"/>
    </contour>
  </outline>
</glyph>
<glyph name="uniA7B9" format="2">
  <advance width="510"/>
  <unicode hex="A7B9"/>
  <anchor x="255" y="0" name="bottom"/>
  <anchor x="255" y="536" name="top"/>
  <anchor x="474" y="536" name="topright"/>
  <outline>
    <contour>
      <point x="40" y="-11" type="line"/>
      <point x="50" y="-11" type="line"/>
      <point x="438" y="549" type="line"/>
      <point x="428" y="549" type="line"/>
    </contour>
    <component base="u"/>
  </outline>
</glyph>
<glyph name="uniA7C5" format="2">
  <advance width="435"/>
  <unicode hex="A7C5"/>
  <anchor x="209" y="-10" name="bottom"/>
  <anchor x="217" y="714" name="top"/>
  <anchor x="415" y="714" name="topright"/>
  <outline>
    <contour>
      <point x="36" y="-51" type="line"/>
      <point x="36" y="-175"/>
      <point x="90" y="-216"/>
      <point x="153" y="-216" type="curve" smooth="yes"/>
      <point x="213" y="-216"/>
      <point x="245" y="-191"/>
      <point x="245" y="-154" type="curve" smooth="yes"/>
      <point x="245" y="-127"/>
      <point x="228" y="-102"/>
      <point x="196" y="-102" type="curve" smooth="yes"/>
      <point x="140" y="-102"/>
      <point x="165" y="-171"/>
      <point x="107" y="-171" type="curve" smooth="yes"/>
      <point x="69" y="-171"/>
      <point x="44" y="-138"/>
      <point x="44" y="-46" type="curve" smooth="yes"/>
      <point x="44" y="125" type="line"/>
      <point x="36" y="125" type="line"/>
    </contour>
    <component base="S"/>
  </outline>
</glyph>
<glyph name="uniA7C7" format="2">
  <advance width="583"/>
  <unicode hex="A7C7"/>
  <anchor x="292" y="0" name="bottom"/>
  <anchor x="292" y="357" name="center"/>
  <anchor x="292" y="714" name="top"/>
  <anchor x="563" y="714" name="topright"/>
  <outline>
    <contour>
      <point x="143" y="363" type="line"/>
      <point x="482" y="363" type="line"/>
      <point x="482" y="373" type="line"/>
      <point x="143" y="373" type="line"/>
    </contour>
    <component base="D"/>
  </outline>
</glyph>
<glyph name="uniA7C8" format="2">
  <advance width="493"/>
  <unicode hex="A7C8"/>
  <anchor x="247" y="0" name="bottom"/>
  <anchor x="247" y="268" name="center"/>
  <anchor x="247" y="760" name="top"/>
  <anchor x="467" y="760" name="topright"/>
  <outline>
    <contour>
      <point x="80" y="266" type="line"/>
      <point x="367" y="266" type="line"/>
      <point x="367" y="276" type="line"/>
      <point x="80" y="276" type="line"/>
    </contour>
    <component base="d"/>
  </outline>
</glyph>
<glyph name="uniA7C9" format="2">
  <advance width="435"/>
  <unicode hex="A7C9"/>
  <anchor x="209" y="-10" name="bottom"/>
  <anchor x="217" y="714" name="top"/>
  <anchor x="415" y="714" name="topright"/>
  <outline>
    <contour>
      <point x="27" y="365" type="line"/>
      <point x="409" y="365" type="line"/>
      <point x="409" y="375" type="line"/>
      <point x="27" y="375" type="line"/>
    </contour>
    <component base="S"/>
  </outline>
</glyph>
<glyph name="uniA7CA" format="2">
  <advance width="360"/>
  <unicode hex="A7CA"/>
  <anchor x="181" y="0" name="bottom"/>
  <anchor x="181" y="536" name="top"/>
  <anchor x="334" y="536" name="topright"/>
  <outline>
    <contour>
      <point x="25" y="273" type="line"/>
      <point x="343" y="273" type="line"/>
      <point x="343" y="283" type="line"/>
      <point x="25" y="283" type="line"/>
    </contour>
    <component base="s"/>
  </outline>
</glyph>
<glyph name="uniA7FF" format="2">
  <advance width="823"/>
  <unicode hex="A7FF"/>
  <outline>
    <contour>
      <point x="1" y="0" type="line"/>
      <point x="151" y="0" type="line"/>
      <point x="151" y="10" type="line"/>
      <point x="116" y="10" type="line" smooth="yes"/>
      <point x="85" y="10"/>
      <point x="79" y="19"/>
      <point x="79" y="32" type="curve" smooth="yes"/>
      <point x="79" y="44"/>
      <point x="84" y="66"/>
      <point x="92" y="98" type="curve" smooth="yes"/>
      <point x="152" y="350" type="line" smooth="yes"/>
      <point x="166" y="407"/>
      <point x="177" y="450"/>
      <point x="185" y="489" type="curve"/>
      <point x="187" y="489" type="line"/>
      <point x="197" y="447"/>
      <point x="206" y="406"/>
      <point x="217" y="364" type="curve" smooth="yes"/>
      <point x="305" y="0" type="line"/>
      <point x="353" y="0" type="line"/>
      <point x="466" y="457" type="line"/>
      <point x="591" y="0" type="line"/>
      <point x="642" y="0" type="line"/>
      <point x="740" y="477" type="line" smooth="yes"/>
      <point x="749" y="523"/>
      <point x="757" y="526"/>
      <point x="798" y="526" type="curve" smooth="yes"/>
      <point x="818" y="526" type="line"/>
      <point x="818" y="536" type="line"/>
      <point x="666" y="536" type="line"/>
      <point x="666" y="526" type="line"/>
      <point x="697" y="526" type="line" smooth="yes"/>
      <point x="728" y="526"/>
      <point x="732" y="519"/>
      <point x="732" y="506" type="curve" smooth="yes"/>
      <point x="732" y="494"/>
      <point x="728" y="470"/>
      <point x="721" y="438" type="curve" smooth="yes"/>
      <point x="674" y="208" type="line" smooth="yes"/>
      <point x="662" y="146"/>
      <point x="653" y="101"/>
      <point x="647" y="67" type="curve"/>
      <point x="645" y="67" type="line"/>
      <point x="636" y="108"/>
      <point x="619" y="178"/>
      <point x="607" y="221" type="curve" smooth="yes"/>
      <point x="518" y="536" type="line"/>
      <point x="475" y="536" type="line"/>
      <point x="395" y="210" type="line" smooth="yes"/>
      <point x="385" y="170"/>
      <point x="369" y="101"/>
      <point x="362" y="70" type="curve"/>
      <point x="360" y="70" type="line"/>
      <point x="355" y="103"/>
      <point x="341" y="161"/>
      <point x="332" y="197" type="curve" smooth="yes"/>
      <point x="249" y="536" type="line"/>
      <point x="185" y="536" type="line"/>
      <point x="71" y="59" type="line" smooth="yes"/>
      <point x="61" y="13"/>
      <point x="54" y="10"/>
      <point x="13" y="10" type="curve" smooth="yes"/>
      <point x="1" y="10" type="line"/>
    </contour>
  </outline>
</glyph>
<glyph name="uniAB3F" format="2">
  <advance width="396"/>
  <unicode hex="AB3F"/>
  <anchor x="179" y="541" name="bottom"/>
  <anchor x="179" y="5" name="top"/>
  <anchor x="20" y="5" name="topright"/>
  <outline>
    <contour>
      <point x="20" y="-43" type="line"/>
      <point x="31" y="-43" type="line"/>
      <point x="336" y="583" type="line"/>
      <point x="325" y="583" type="line"/>
    </contour>
    <component base="c" xScale="-1" yScale="-1" xOffset="396" yOffset="541"/>
  </outline>
</glyph>
<glyph name="uniAB41" format="2">
  <advance width="718"/>
  <unicode hex="AB41"/>
  <anchor x="362" y="535" name="bottom"/>
  <anchor x="362" y="-1" name="top"/>
  <outline>
    <contour>
      <point x="339" y="-47" type="line"/>
      <point x="350" y="-47" type="line"/>
      <point x="646" y="581" type="line"/>
      <point x="635" y="581" type="line"/>
    </contour>
    <component base="oe" xScale="-1" yScale="-1" xOffset="724" yOffset="535"/>
  </outline>
</glyph>
<glyph name="uniAB42" format="2">
  <advance width="723"/>
  <unicode hex="AB42"/>
  <anchor x="362" y="535" name="bottom"/>
  <anchor x="362" y="-1" name="top"/>
  <outline>
    <contour>
      <point x="363" y="271" type="line"/>
      <point x="619" y="271" type="line"/>
      <point x="619" y="281" type="line"/>
      <point x="363" y="281" type="line"/>
    </contour>
    <component base="oe" xScale="-1" yScale="-1" xOffset="724" yOffset="535"/>
  </outline>
</glyph>
<glyph name="uniAB44" format="2">
  <advance width="730"/>
  <unicode hex="AB44"/>
  <outline>
    <contour>
      <point x="329" y="-41" type="line"/>
      <point x="341" y="-41" type="line"/>
      <point x="645" y="575" type="line"/>
      <point x="634" y="575" type="line"/>
    </contour>
    <component base="uniAB43"/>
  </outline>
</glyph>
<glyph name="uniAB60" format="2">
  <advance width="732"/>
  <unicode hex="AB60"/>
  <outline>
    <contour>
      <point x="287" y="0" type="line"/>
      <point x="532" y="0" type="line" smooth="yes"/>
      <point x="642" y="0"/>
      <point x="702" y="54"/>
      <point x="702" y="156" type="curve" smooth="yes"/>
      <point x="702" y="273"/>
      <point x="625" y="296"/>
      <point x="527" y="296" type="curve" smooth="yes"/>
      <point x="446" y="296" type="line"/>
      <point x="446" y="454" type="line" smooth="yes"/>
      <point x="446" y="514"/>
      <point x="456" y="526"/>
      <point x="509" y="526" type="curve" smooth="yes"/>
      <point x="519" y="526" type="line"/>
      <point x="519" y="536" type="line"/>
      <point x="287" y="536" type="line"/>
      <point x="287" y="528" type="line"/>
      <point x="299" y="528" type="line" smooth="yes"/>
      <point x="351" y="528"/>
      <point x="360" y="516"/>
      <point x="360" y="454" type="curve" smooth="yes"/>
      <point x="360" y="80" type="line" smooth="yes"/>
      <point x="360" y="22"/>
      <point x="352" y="10"/>
      <point x="299" y="10" type="curve" smooth="yes"/>
      <point x="287" y="10" type="line"/>
    </contour>
    <contour>
      <point x="26" y="0" type="line"/>
      <point x="243" y="0" type="line"/>
      <point x="243" y="10" type="line"/>
      <point x="237" y="10" type="line" smooth="yes"/>
      <point x="189" y="10"/>
      <point x="177" y="21"/>
      <point x="177" y="81" type="curve" smooth="yes"/>
      <point x="177" y="457" type="line" smooth="yes"/>
      <point x="177" y="518"/>
      <point x="189" y="528"/>
      <point x="237" y="528" type="curve" smooth="yes"/>
      <point x="243" y="528" type="line"/>
      <point x="243" y="536" type="line"/>
      <point x="26" y="536" type="line"/>
      <point x="26" y="528" type="line"/>
      <point x="33" y="528" type="line" smooth="yes"/>
      <point x="78" y="528"/>
      <point x="90" y="518"/>
      <point x="90" y="457" type="curve" smooth="yes"/>
      <point x="90" y="81" type="line" smooth="yes"/>
      <point x="90" y="19"/>
      <point x="79" y="10"/>
      <point x="31" y="10" type="curve" smooth="yes"/>
      <point x="26" y="10" type="line"/>
    </contour>
    <contour>
      <point x="446" y="10" type="line"/>
      <point x="446" y="286" type="line"/>
      <point x="510" y="286" type="line" smooth="yes"/>
      <point x="585" y="286"/>
      <point x="615" y="252"/>
      <point x="615" y="158" type="curve" smooth="yes"/>
      <point x="615" y="52"/>
      <point x="584" y="10"/>
      <point x="514" y="10" type="curve" smooth="yes"/>
    </contour>
  </outline>
</glyph>
<glyph name="uniAB69" format="2">
  <advance width="441"/>
  <unicode hex="AB69"/>
  <anchor x="221" y="287" name="bottom"/>
  <anchor x="1" y="287" name="bottomleft"/>
  <anchor x="221" y="609" name="top"/>
  <outline>
    <contour>
      <point x="404" y="325" type="curve" smooth="yes"/>
      <point x="333" y="609" type="line"/>
      <point x="302" y="609" type="line"/>
      <point x="228" y="335" type="line"/>
      <point x="147" y="609" type="line"/>
      <point x="114" y="609" type="line"/>
      <point x="50" y="323" type="line" smooth="yes"/>
      <point x="44" y="295"/>
      <point x="39" y="293"/>
      <point x="12" y="293" type="curve" smooth="yes"/>
      <point x="0" y="293" type="line"/>
      <point x="0" y="287" type="line"/>
      <point x="98" y="287" type="line"/>
      <point x="98" y="293" type="line"/>
      <point x="78" y="293" type="line" smooth="yes"/>
      <point x="58" y="293"/>
      <point x="55" y="298"/>
      <point x="55" y="305" type="curve" smooth="yes"/>
      <point x="55" y="313"/>
      <point x="58" y="327"/>
      <point x="62" y="346" type="curve" smooth="yes"/>
      <point x="93" y="484" type="line" smooth="yes"/>
      <point x="97" y="503"/>
      <point x="107" y="548"/>
      <point x="111" y="569" type="curve"/>
      <point x="112" y="569" type="line"/>
      <point x="117" y="547"/>
      <point x="130" y="500"/>
      <point x="137" y="476" type="curve" smooth="yes"/>
      <point x="194" y="287" type="line"/>
      <point x="222" y="287" type="line"/>
      <point x="274" y="485" type="line" smooth="yes"/>
      <point x="280" y="507"/>
      <point x="291" y="547"/>
      <point x="296" y="567" type="curve"/>
      <point x="297" y="567" type="line"/>
      <point x="301" y="544"/>
      <point x="306" y="529"/>
      <point x="315" y="491" type="curve" smooth="yes"/>
      <point x="350" y="348" type="line" smooth="yes"/>
      <point x="354" y="332"/>
      <point x="359" y="313"/>
      <point x="359" y="305" type="curve" smooth="yes"/>
      <point x="359" y="298"/>
      <point x="355" y="293"/>
      <point x="335" y="293" type="curve" smooth="yes"/>
      <point x="313" y="293" type="line"/>
      <point x="313" y="287" type="line"/>
      <point x="441" y="287" type="line"/>
      <point x="441" y="293" type="line"/>
      <point x="440" y="293" type="line" smooth="yes"/>
      <point x="415" y="293"/>
      <point x="411" y="296"/>
    </contour>
  </outline>
</glyph>
<glyph name="uniFE20" format="2">
  <unicode hex="FE20"/>
  <anchor x="2" y="536" name="_top"/>
  <outline>
    <contour>
      <point x="-305" y="593" type="curve"/>
      <point x="-294" y="593" type="line"/>
      <point x="-233" y="689"/>
      <point x="-151" y="721"/>
      <point x="2" y="721" type="curve"/>
      <point x="2" y="774" type="line"/>
      <point x="-8" y="774" type="line" smooth="yes"/>
      <point x="-146" y="774"/>
      <point x="-244" y="723"/>
    </contour>
  </outline>
</glyph>
<glyph name="uniFE21" format="2">
  <unicode hex="FE21"/>
  <anchor x="-1" y="536" name="_top"/>
  <outline>
    <contour>
      <point x="295" y="593" type="curve"/>
      <point x="306" y="593" type="line"/>
      <point x="245" y="723"/>
      <point x="147" y="774"/>
      <point x="8" y="774" type="curve" smooth="yes"/>
      <point x="-1" y="774" type="line"/>
      <point x="-1" y="721" type="line"/>
      <point x="152" y="721"/>
      <point x="235" y="689"/>
    </contour>
  </outline>
</glyph>
<glyph name="uniFE22" format="2">
  <unicode hex="FE22"/>
  <anchor x="2" y="536" name="_top"/>
  <outline>
    <contour>
      <point x="-304" y="597" type="curve"/>
      <point x="-294" y="597" type="line"/>
      <point x="-276" y="651"/>
      <point x="-246" y="677"/>
      <point x="-182" y="677" type="curve" smooth="yes"/>
      <point x="-115" y="677"/>
      <point x="-54" y="656"/>
      <point x="2" y="634" type="curve"/>
      <point x="2" y="687" type="line"/>
      <point x="-30" y="697"/>
      <point x="-96" y="720"/>
      <point x="-158" y="720" type="curve" smooth="yes"/>
      <point x="-242" y="720"/>
      <point x="-286" y="674"/>
    </contour>
  </outline>
</glyph>
<glyph name="uniFE23" format="2">
  <unicode hex="FE23"/>
  <anchor x="-2" y="536" name="_top"/>
  <outline>
    <contour>
      <point x="158" y="602" type="curve" smooth="yes"/>
      <point x="242" y="602"/>
      <point x="286" y="647"/>
      <point x="304" y="725" type="curve"/>
      <point x="294" y="725" type="line"/>
      <point x="275" y="668"/>
      <point x="243" y="644"/>
      <point x="182" y="644" type="curve" smooth="yes"/>
      <point x="115" y="644"/>
      <point x="54" y="665"/>
      <point x="-2" y="687" type="curve"/>
      <point x="-2" y="634" type="line"/>
      <point x="30" y="624"/>
      <point x="97" y="602"/>
    </contour>
  </outline>
</glyph>
<glyph name="uniFE27" format="2">
  <unicode hex="FE27"/>
  <anchor x="0" y="0" name="_bottom"/>
  <anchor x="-157" y="536" name="braceleft"/>
  <outline>
    <contour>
      <point x="0" y="-206" type="curve"/>
      <point x="0" y="-158" type="line"/>
      <point x="-153" y="-158"/>
      <point x="-249" y="-124"/>
      <point x="-302" y="-33" type="curve"/>
      <point x="-313" y="-33" type="line"/>
      <point x="-244" y="-162"/>
      <point x="-155" y="-206"/>
    </contour>
  </outline>
</glyph>
<glyph name="uniFE29" format="2">
  <unicode hex="FE29"/>
  <anchor x="0" y="0" name="_bottom"/>
  <anchor x="-153" y="536" name="braceleft"/>
  <outline>
    <contour>
      <point x="-315" y="-195" type="curve"/>
      <point x="-306" y="-195" type="line"/>
      <point x="-298" y="-170"/>
      <point x="-284" y="-152"/>
      <point x="-273" y="-143" type="curve" smooth="yes"/>
      <point x="-256" y="-126"/>
      <point x="-230" y="-113"/>
      <point x="-187" y="-113" type="curve" smooth="yes"/>
      <point x="-130" y="-113"/>
      <point x="-79" y="-128"/>
      <point x="0" y="-153" type="curve"/>
      <point x="0" y="-102" type="line"/>
      <point x="-60" y="-82"/>
      <point x="-118" y="-68"/>
      <point x="-169" y="-68" type="curve" smooth="yes"/>
      <point x="-248" y="-68"/>
      <point x="-299" y="-116"/>
    </contour>
  </outline>
</glyph>
<glyph name="uniFE2A" format="2">
  <unicode hex="FE2A"/>
  <anchor x="0" y="0" name="_bottom"/>
  <anchor x="153" y="536" name="braceleft"/>
  <outline>
    <contour>
      <point x="169" y="-194" type="curve" smooth="yes"/>
      <point x="248" y="-194"/>
      <point x="299" y="-146"/>
      <point x="315" y="-68" type="curve"/>
      <point x="306" y="-68" type="line"/>
      <point x="298" y="-92"/>
      <point x="284" y="-111"/>
      <point x="273" y="-119" type="curve" smooth="yes"/>
      <point x="256" y="-137"/>
      <point x="230" y="-149"/>
      <point x="187" y="-149" type="curve" smooth="yes"/>
      <point x="130" y="-149"/>
      <point x="79" y="-134"/>
      <point x="0" y="-109" type="curve"/>
      <point x="0" y="-160" type="line"/>
      <point x="60" y="-180"/>
      <point x="119" y="-194"/>
    </contour>
  </outline>
</glyph>
<glyph name="uniFE2E" format="2">
  <unicode hex="FE2E"/>
  <anchor x="-77" y="536" name="_top"/>
  <outline>
    <contour>
      <point x="-81" y="577" type="curve" smooth="yes"/>
      <point x="-58" y="577"/>
      <point x="-53" y="592"/>
      <point x="-53" y="634" type="curve"/>
      <point x="109" y="634" type="line"/>
      <point x="109" y="654" type="line"/>
      <point x="-80" y="654" type="line" smooth="yes"/>
      <point x="-102" y="654"/>
      <point x="-109" y="647"/>
      <point x="-109" y="622" type="curve" smooth="yes"/>
      <point x="-109" y="591"/>
      <point x="-102" y="577"/>
    </contour>
  </outline>
</glyph>
<glyph name="uniFE2F" format="2">
  <unicode hex="FE2F"/>
  <anchor x="77" y="536" name="_top"/>
  <outline>
    <contour>
      <point x="-110" y="624" type="line"/>
      <point x="81" y="624" type="line" smooth="yes"/>
      <point x="103" y="624"/>
      <point x="110" y="631"/>
      <point x="110" y="656" type="curve" smooth="yes"/>
      <point x="110" y="687"/>
      <point x="103" y="701"/>
      <point x="82" y="701" type="curve" smooth="yes"/>
      <point x="58" y="701"/>
      <point x="54" y="686"/>
      <point x="53" y="644" type="curve"/>
      <point x="-110" y="644" type="line"/>
    </contour>
  </outline>
</glyph>
<glyph name="eth.sc" format="2">
  <advance width="511"/>
  <anchor x="256" y="0" name="bottom"/>
  <anchor x="256" y="571" name="top"/>
  <anchor x="256" y="286" name="center"/>
  <anchor x="492" y="571" name="topright"/>
  <outline>
    <contour>
      <point x="26" y="291" type="line"/>
      <point x="278" y="291" type="line"/>
      <point x="278" y="301" type="line"/>
      <point x="26" y="301" type="line"/>
    </contour>
    <component base="d.sc"/>
  </outline>
</glyph>
<glyph name="lslash.sc" format="2">
  <advance width="435"/>
  <anchor x="218" y="0" name="bottom"/>
  <anchor x="218" y="571" name="top"/>
  <anchor x="218" y="286" name="center"/>
  <anchor x="415" y="571" name="topright"/>
  <outline>
    <contour>
      <point x="30" y="191" type="line"/>
      <point x="286" y="347" type="line"/>
      <point x="286" y="359" type="line"/>
      <point x="30" y="203" type="line"/>
    </contour>
    <component base="l.sc"/>
  </outline>
</glyph>
<glyph name="uni0268dotless" format="2">
  <advance width="260"/>
  <anchor x="130" y="0" name="bottom"/>
  <anchor x="130" y="536" name="top"/>
  <outline>
    <contour>
      <point x="14" y="277" type="line"/>
      <point x="253" y="277" type="line"/>
      <point x="253" y="287" type="line"/>
      <point x="14" y="287" type="line"/>
    </contour>
    <component base="idotless"/>
  </outline>
</glyph>
